<svg xmlns="http://www.w3.org/2000/svg" xmlns:xlink="http://www.w3.org/1999/xlink" width="1000" zoomAndPan="magnify" viewBox="0 0 750 374.999991" height="500" preserveAspectRatio="xMidYMid meet" version="1.0"><defs><g/></defs><g fill="#9f9e05" fill-opacity="1"><g transform="translate(125.225283, 275.713249)"><g><path d="M -0.65625 -206.71875 C 3.425781 -209.894531 7.546875 -211.769531 11.703125 -212.34375 C 15.867188 -212.914062 19.941406 -212.546875 23.921875 -211.234375 C 27.898438 -209.929688 31.660156 -208.050781 35.203125 -205.59375 C 38.742188 -203.144531 41.960938 -200.453125 44.859375 -197.515625 C 46.484375 -195.867188 47.984375 -194.207031 49.359375 -192.53125 C 50.742188 -190.851562 51.992188 -189.226562 53.109375 -187.65625 C 57.492188 -181.5 61.597656 -174.582031 65.421875 -166.90625 C 69.242188 -159.226562 72.617188 -151.140625 75.546875 -142.640625 C 78.472656 -134.140625 80.832031 -125.546875 82.625 -116.859375 C 83.789062 -111.085938 84.703125 -104.675781 85.359375 -97.625 C 86.023438 -90.570312 86.222656 -83.164062 85.953125 -75.40625 C 85.679688 -67.65625 84.753906 -59.851562 83.171875 -52 C 81.585938 -44.144531 79.128906 -36.488281 75.796875 -29.03125 C 72.472656 -21.582031 68.050781 -14.640625 62.53125 -8.203125 C 61.875 -7.421875 61.222656 -6.675781 60.578125 -5.96875 C 59.941406 -5.269531 59.265625 -4.566406 58.546875 -3.859375 C 51.660156 2.929688 44.472656 7.222656 36.984375 9.015625 C 29.492188 10.816406 22.019531 10.335938 14.5625 7.578125 C 7.113281 4.816406 0.03125 0.03125 -6.6875 -6.78125 C -9.863281 -10 -12.945312 -13.664062 -15.9375 -17.78125 C -18.9375 -21.894531 -21.769531 -26.457031 -24.4375 -31.46875 C -28.863281 -39.675781 -32.242188 -49.835938 -34.578125 -61.953125 C -36.921875 -74.078125 -37.707031 -88.425781 -36.9375 -105 C -36.9375 -106.707031 -36.578125 -107.921875 -35.859375 -108.640625 C -35.503906 -108.984375 -35.253906 -109.15625 -35.109375 -109.15625 C -34.390625 -109.144531 -33.851562 -108.960938 -33.5 -108.609375 C -33.082031 -108.179688 -32.804688 -107.328125 -32.671875 -106.046875 C -32.671875 -106.046875 -32.625 -104.816406 -32.53125 -102.359375 C -32.4375 -99.898438 -32.191406 -96.609375 -31.796875 -92.484375 C -31.398438 -88.359375 -30.753906 -83.726562 -29.859375 -78.59375 C -28.972656 -73.457031 -27.660156 -68.210938 -25.921875 -62.859375 C -22.785156 -53.078125 -18.828125 -44.007812 -14.046875 -35.65625 C -9.273438 -27.300781 -4.0625 -20.253906 1.59375 -14.515625 C 7.175781 -8.847656 13.070312 -4.691406 19.28125 -2.046875 C 25.488281 0.585938 31.816406 1.304688 38.265625 0.109375 C 44.722656 -1.078125 51.101562 -4.71875 57.40625 -10.8125 C 60.488281 -13.851562 63.019531 -17.085938 65 -20.515625 C 66.988281 -23.953125 68.640625 -27.445312 69.953125 -31 C 72.703125 -38.238281 74.515625 -46.179688 75.390625 -54.828125 C 76.273438 -63.472656 76.394531 -72.457031 75.75 -81.78125 C 75.101562 -91.113281 73.816406 -100.414062 71.890625 -109.6875 C 69.203125 -123.007812 65.675781 -135.679688 61.3125 -147.703125 C 56.945312 -159.734375 51.847656 -170.144531 46.015625 -178.9375 C 44.460938 -181.226562 42.503906 -184.035156 40.140625 -187.359375 C 37.773438 -190.691406 35.109375 -193.863281 32.140625 -196.875 C 29.453125 -199.59375 26.585938 -201.925781 23.546875 -203.875 C 20.503906 -205.820312 17.414062 -206.875 14.28125 -207.03125 C 11.925781 -207.125 9.410156 -206.59375 6.734375 -205.4375 C 4.054688 -204.28125 1.503906 -202.503906 -0.921875 -200.109375 C -2.578125 -198.484375 -4.125 -196.53125 -5.5625 -194.25 C -8.800781 -189.226562 -11.40625 -183.128906 -13.375 -175.953125 C -15.351562 -168.773438 -16.515625 -161.054688 -16.859375 -152.796875 C -17.203125 -144.546875 -16.566406 -136.125 -14.953125 -127.53125 C -13.335938 -118.945312 -10.492188 -110.65625 -6.421875 -102.65625 C -2.617188 -95.09375 1.363281 -89.195312 5.53125 -84.96875 C 8.78125 -81.664062 12.109375 -79.429688 15.515625 -78.265625 C 18.921875 -77.109375 22.300781 -77.195312 25.65625 -78.53125 C 28.4375 -79.695312 30.757812 -81.203125 32.625 -83.046875 C 38 -88.335938 40.082031 -96.617188 38.875 -107.890625 C 38.269531 -112.941406 37.347656 -117.609375 36.109375 -121.890625 C 34.492188 -126.828125 32.457031 -131.078125 30 -134.640625 C 27.539062 -138.210938 25.179688 -141.144531 22.921875 -143.4375 C 21.296875 -145.09375 19.828125 -146.441406 18.515625 -147.484375 C 17.203125 -148.523438 16.265625 -149.257812 15.703125 -149.6875 C 15.546875 -149.832031 15.363281 -149.976562 15.15625 -150.125 C 14.945312 -150.269531 14.769531 -150.414062 14.625 -150.5625 C 12.863281 -152.351562 12.628906 -154.238281 13.921875 -156.21875 C 14.566406 -156.851562 15.4375 -157.113281 16.53125 -157 C 17.632812 -156.882812 18.929688 -156.144531 20.421875 -154.78125 C 20.785156 -154.414062 21.191406 -154.035156 21.640625 -153.640625 C 22.097656 -153.253906 22.503906 -152.878906 22.859375 -152.515625 C 26.816406 -148.503906 29.957031 -144.566406 32.28125 -140.703125 C 34.601562 -136.847656 36.253906 -133.671875 37.234375 -131.171875 C 38.210938 -128.679688 38.703125 -127.4375 38.703125 -127.4375 C 39.679688 -124.71875 40.566406 -121.769531 41.359375 -118.59375 C 42.160156 -115.425781 42.757812 -111.984375 43.15625 -108.265625 C 43.75 -101.929688 43.257812 -96.050781 41.6875 -90.625 C 40.125 -85.195312 37.660156 -80.820312 34.296875 -77.5 C 30.128906 -73.394531 25.765625 -71.003906 21.203125 -70.328125 C 16.648438 -69.648438 12.15625 -70.300781 7.71875 -72.28125 C 3.289062 -74.269531 -0.757812 -77.128906 -4.4375 -80.859375 C -8.6875 -85.171875 -12.210938 -90.179688 -15.015625 -95.890625 C -18.816406 -103.453125 -21.644531 -111.582031 -23.5 -120.28125 C -25.363281 -128.976562 -26.207031 -137.753906 -26.03125 -146.609375 C -25.863281 -155.472656 -24.644531 -163.992188 -22.375 -172.171875 C -20.113281 -180.347656 -16.675781 -187.691406 -12.0625 -194.203125 C -9.550781 -197.804688 -6.96875 -200.921875 -4.3125 -203.546875 C -3.664062 -204.179688 -3.039062 -204.757812 -2.4375 -205.28125 C -1.832031 -205.8125 -1.238281 -206.289062 -0.65625 -206.71875 Z M -0.65625 -206.71875 "/></g></g></g><g fill="#9f9e05" fill-opacity="1"><g transform="translate(238.553057, 174.774566)"><g><path d="M 51.8125 -62.40625 C 52.65625 -62.207031 53.21875 -61.785156 53.5 -61.140625 C 53.570312 -60.953125 53.59375 -60.632812 53.5625 -60.1875 C 52.144531 -47.238281 49.457031 -36.726562 45.5 -28.65625 C 41.539062 -20.59375 36.085938 -15.09375 29.140625 -12.15625 C 25.972656 -10.820312 23.1875 -10.21875 20.78125 -10.34375 C 18.382812 -10.476562 16.515625 -11.082031 15.171875 -12.15625 C 13.640625 -13.476562 12.460938 -15.113281 11.640625 -17.0625 C 10.109375 -20.675781 9.601562 -25.539062 10.125 -31.65625 C 10.65625 -37.78125 12.0625 -45.257812 14.34375 -54.09375 C 15.457031 -58.164062 16.488281 -62.316406 17.4375 -66.546875 C 18.382812 -70.773438 18.925781 -75.050781 19.0625 -79.375 L 19.109375 -81.203125 L 18.28125 -80.84375 C 14.113281 -79.082031 10.519531 -78.273438 7.5 -78.421875 C 4.488281 -78.566406 2.054688 -79.015625 0.203125 -79.765625 L -4.640625 -35.75 C -4.722656 -34.945312 -5.085938 -34.40625 -5.734375 -34.125 C -6.015625 -34.007812 -6.378906 -33.960938 -6.828125 -33.984375 C -7.503906 -34.035156 -7.976562 -34.390625 -8.25 -35.046875 C -8.375 -35.316406 -8.421875 -35.675781 -8.390625 -36.125 L -3.453125 -81.8125 C -4.566406 -82.65625 -5.515625 -83.617188 -6.296875 -84.703125 C -7.085938 -85.796875 -7.71875 -86.898438 -8.1875 -88.015625 C -8.925781 -89.773438 -9.316406 -91.46875 -9.359375 -93.09375 C -9.328125 -93.539062 -9.285156 -93.960938 -9.234375 -94.359375 C -9.191406 -94.765625 -9.15625 -95.195312 -9.125 -95.65625 C -8.601562 -97.507812 -7.921875 -99 -7.078125 -100.125 C -6.128906 -101.738281 -4.992188 -102.984375 -3.671875 -103.859375 C -2.347656 -104.742188 -1.128906 -105.421875 -0.015625 -105.890625 C 1.003906 -106.328125 1.8125 -106.617188 2.40625 -106.765625 C 3 -106.910156 3.296875 -106.984375 3.296875 -106.984375 C 2.753906 -102.046875 2.335938 -98.234375 2.046875 -95.546875 C 1.765625 -92.859375 1.539062 -90.929688 1.375 -89.765625 C 1.207031 -88.609375 1.117188 -87.914062 1.109375 -87.6875 C 1.097656 -87.46875 1.09375 -87.359375 1.09375 -87.359375 C 1.070312 -86.910156 1.019531 -86.253906 0.9375 -85.390625 C 0.863281 -84.535156 0.816406 -84.003906 0.796875 -83.796875 C 3.140625 -82.367188 5.96875 -81.8125 9.28125 -82.125 C 12.601562 -82.4375 16.164062 -83.394531 19.96875 -85 C 21.726562 -85.75 23.515625 -86.617188 25.328125 -87.609375 C 27.148438 -88.597656 29.007812 -89.707031 30.90625 -90.9375 C 30.90625 -90.9375 30.71875 -88.207031 30.34375 -82.75 C 29.96875 -77.289062 28.804688 -69.882812 26.859375 -60.53125 L 26.078125 -56.609375 C 25.191406 -52.515625 24.269531 -48.160156 23.3125 -43.546875 C 22.351562 -38.941406 21.597656 -34.71875 21.046875 -30.875 C 20.972656 -29.738281 21.003906 -28.160156 21.140625 -26.140625 C 21.285156 -24.128906 21.710938 -22.289062 22.421875 -20.625 C 22.929688 -19.425781 23.671875 -18.457031 24.640625 -17.71875 C 25.609375 -16.976562 26.738281 -16.769531 28.03125 -17.09375 C 28.34375 -17.125 28.632812 -17.195312 28.90625 -17.3125 C 29.1875 -17.425781 29.46875 -17.539062 29.75 -17.65625 C 33.820312 -19.382812 37.476562 -23.007812 40.71875 -28.53125 C 42.914062 -32.40625 44.78125 -36.988281 46.3125 -42.28125 C 47.84375 -47.570312 48.984375 -53.710938 49.734375 -60.703125 C 49.785156 -61.378906 50.1875 -61.878906 50.9375 -62.203125 C 51.300781 -62.347656 51.59375 -62.414062 51.8125 -62.40625 Z M 51.8125 -62.40625 "/></g></g></g><g fill="#9f9e05" fill-opacity="1"><g transform="translate(291.529626, 150.522627)"><g><path d="M 82.6875 -50.859375 C 83.320312 -50.660156 83.707031 -50.164062 83.84375 -49.375 C 83.90625 -48.976562 83.90625 -48.671875 83.84375 -48.453125 C 81.632812 -42.503906 79.1875 -36.609375 76.5 -30.765625 C 73.8125 -24.929688 70.648438 -19.988281 67.015625 -15.9375 C 63.390625 -11.894531 59.09375 -9.472656 54.125 -8.671875 C 49.25 -7.890625 45.175781 -8.488281 41.90625 -10.46875 C 38.632812 -12.445312 36.632812 -15.71875 35.90625 -20.28125 C 35.84375 -20.6875 35.773438 -21.113281 35.703125 -21.5625 C 35.628906 -22.007812 35.613281 -22.429688 35.65625 -22.828125 C 32.6875 -17.066406 29.445312 -12.398438 25.9375 -8.828125 C 22.4375 -5.265625 18.8125 -3.125 15.0625 -2.40625 L 14.453125 -2.3125 C 10.890625 -1.738281 7.90625 -2.101562 5.5 -3.40625 C 3.101562 -4.707031 1.257812 -6.523438 -0.03125 -8.859375 C -1.332031 -11.203125 -2.195312 -13.71875 -2.625 -16.40625 C -2.71875 -17 -2.804688 -17.566406 -2.890625 -18.109375 C -2.984375 -18.660156 -3.019531 -19.195312 -3 -19.71875 C -3.09375 -24.082031 -2.632812 -28.84375 -1.625 -34 C -0.613281 -39.15625 0.957031 -44.296875 3.09375 -49.421875 C 6.40625 -57.398438 9.8125 -63.785156 13.3125 -68.578125 C 16.820312 -73.367188 20.304688 -76.910156 23.765625 -79.203125 C 27.222656 -81.492188 30.5 -82.890625 33.59375 -83.390625 C 34.875 -83.585938 36.082031 -83.644531 37.21875 -83.5625 C 38.351562 -83.488281 39.453125 -83.335938 40.515625 -83.109375 C 42.734375 -82.648438 44.457031 -81.578125 45.6875 -79.890625 C 46.925781 -78.203125 47.75 -76.070312 48.15625 -73.5 C 48.300781 -72.601562 48.398438 -71.671875 48.453125 -70.703125 C 48.503906 -69.734375 48.523438 -68.6875 48.515625 -67.5625 L 55.09375 -85.59375 L 67.46875 -87.578125 L 52.234375 -46.140625 C 49.960938 -39.972656 48.394531 -34.984375 47.53125 -31.171875 C 46.664062 -27.359375 46.1875 -24.125 46.09375 -21.46875 C 46.125 -21.269531 46.132812 -21.039062 46.125 -20.78125 C 46.125 -20.519531 46.148438 -20.238281 46.203125 -19.9375 C 46.421875 -18.550781 47.054688 -17.125 48.109375 -15.65625 C 49.160156 -14.195312 50.820312 -13.394531 53.09375 -13.25 C 53.40625 -13.195312 53.707031 -13.191406 54 -13.234375 C 54.300781 -13.285156 54.601562 -13.335938 54.90625 -13.390625 C 56.582031 -13.648438 58.410156 -14.445312 60.390625 -15.78125 C 62.378906 -17.125 64.421875 -19.1875 66.515625 -21.96875 C 69.117188 -25.445312 71.535156 -29.609375 73.765625 -34.453125 C 75.992188 -39.296875 78.109375 -44.378906 80.109375 -49.703125 C 80.398438 -50.460938 80.894531 -50.898438 81.59375 -51.015625 C 81.894531 -51.054688 82.257812 -51.003906 82.6875 -50.859375 Z M 23.828125 -12.53125 C 28.910156 -17.726562 33.488281 -25.753906 37.5625 -36.609375 C 38.1875 -38.441406 38.972656 -40.835938 39.921875 -43.796875 C 40.878906 -46.753906 41.742188 -49.953125 42.515625 -53.390625 C 43.296875 -56.828125 43.875 -60.203125 44.25 -63.515625 C 44.632812 -66.835938 44.625 -69.742188 44.21875 -72.234375 C 43.945312 -73.921875 43.46875 -75.347656 42.78125 -76.515625 C 42.09375 -77.679688 41.144531 -78.519531 39.9375 -79.03125 C 39.0625 -79.40625 38.125 -79.515625 37.125 -79.359375 C 34.75 -78.972656 32.265625 -77.320312 29.671875 -74.40625 C 27.078125 -71.488281 24.53125 -67.816406 22.03125 -63.390625 C 19.53125 -58.972656 17.289062 -54.3125 15.3125 -49.40625 C 13.375 -44.394531 11.796875 -39.472656 10.578125 -34.640625 C 9.367188 -29.816406 8.789062 -25.316406 8.84375 -21.140625 C 8.800781 -19.503906 8.898438 -17.941406 9.140625 -16.453125 C 9.640625 -13.367188 10.601562 -11.175781 12.03125 -9.875 C 13.457031 -8.570312 15.113281 -8.078125 17 -8.390625 C 19.09375 -8.722656 21.367188 -10.101562 23.828125 -12.53125 Z M 23.828125 -12.53125 "/></g></g></g><g fill="#9f9e05" fill-opacity="1"><g transform="translate(366.212187, 140.127866)"><g/></g></g><g fill="#9f9e05" fill-opacity="1"><g transform="translate(399.635128, 141.086951)"><g/></g></g><g fill="#9f9e05" fill-opacity="1"><g transform="translate(433.766317, 138.955457)"><g><path d="M 143.34375 27.09375 C 143.757812 27.625 143.789062 28.25 143.4375 28.96875 C 143.269531 29.34375 143.097656 29.59375 142.921875 29.71875 C 132.296875 37.257812 122.625 42.210938 113.90625 44.578125 C 105.195312 46.941406 97.4375 46.5 90.625 43.25 C 87.53125 41.78125 85.222656 40.125 83.703125 38.28125 C 82.179688 36.4375 81.40625 34.613281 81.375 32.8125 C 81.300781 30.882812 81.71875 28.96875 82.625 27.0625 C 84.269531 23.613281 87.554688 20.050781 92.484375 16.375 C 97.421875 12.695312 103.972656 8.734375 112.140625 4.484375 C 115.929688 2.617188 119.707031 0.660156 123.46875 -1.390625 C 127.238281 -3.441406 130.859375 -5.867188 134.328125 -8.671875 C 134.492188 -8.816406 134.921875 -9.195312 135.609375 -9.8125 C 136.296875 -10.425781 136.8125 -11.101562 137.15625 -11.84375 C 137.457031 -12.46875 137.515625 -13.050781 137.328125 -13.59375 C 137.148438 -14.125 136.875 -14.535156 136.5 -14.828125 C 136.132812 -15.117188 135.722656 -15.375 135.265625 -15.59375 C 135.085938 -15.675781 134.875 -15.742188 134.625 -15.796875 C 134.375 -15.859375 134.15625 -15.929688 133.96875 -16.015625 C 132.113281 -16.566406 130.0625 -16.820312 127.8125 -16.78125 C 125.5625 -16.75 123.203125 -16.484375 120.734375 -15.984375 C 114.003906 -14.742188 107.554688 -12.800781 101.390625 -10.15625 C 95.234375 -7.519531 89.734375 -4.757812 84.890625 -1.875 C 80.054688 1 76.21875 3.425781 73.375 5.40625 L 49.4375 22.265625 L 38.265625 16.9375 C 47.867188 10.132812 55.671875 4.59375 61.671875 0.3125 C 67.671875 -3.957031 72.359375 -7.296875 75.734375 -9.703125 C 79.109375 -12.109375 81.519531 -13.828125 82.96875 -14.859375 C 84.414062 -15.898438 85.289062 -16.507812 85.59375 -16.6875 C 85.90625 -16.875 86.0625 -16.96875 86.0625 -16.96875 C 88.875 -18.875 91.550781 -21.03125 94.09375 -23.4375 C 96.632812 -25.851562 98.316406 -27.921875 99.140625 -29.640625 C 99.484375 -30.378906 99.609375 -30.988281 99.515625 -31.46875 C 99.191406 -32.414062 98.523438 -33.128906 97.515625 -33.609375 C 97.335938 -33.691406 97.144531 -33.75 96.9375 -33.78125 C 96.738281 -33.820312 96.550781 -33.882812 96.375 -33.96875 C 94.5 -34.519531 92.414062 -34.785156 90.125 -34.765625 C 87.832031 -34.753906 85.453125 -34.5 82.984375 -34 C 76.753906 -32.851562 70.765625 -31.113281 65.015625 -28.78125 C 59.273438 -26.445312 54.046875 -23.953125 49.328125 -21.296875 C 44.609375 -18.648438 40.734375 -16.257812 37.703125 -14.125 L 11.6875 4.25 L 0.515625 -1.078125 L 70.25 -50.453125 L 81.5625 -45.0625 L 62.890625 -31.890625 C 67.492188 -33.804688 72.113281 -35.414062 76.75 -36.71875 C 81.382812 -38.03125 85.816406 -38.789062 90.046875 -39 C 94.285156 -39.21875 97.992188 -38.566406 101.171875 -37.046875 C 102.722656 -36.304688 104.085938 -35.425781 105.265625 -34.40625 C 106.453125 -33.394531 107.109375 -32.082031 107.234375 -30.46875 C 107.492188 -28.445312 107.125 -26.390625 106.125 -24.296875 C 104.34375 -20.566406 100.21875 -16.015625 93.75 -10.640625 C 98.832031 -13.117188 104.125 -15.328125 109.625 -17.265625 C 115.132812 -19.210938 120.4375 -20.445312 125.53125 -20.96875 C 130.632812 -21.5 135.097656 -20.851562 138.921875 -19.03125 C 140.460938 -18.289062 141.820312 -17.410156 143 -16.390625 C 144.1875 -15.378906 144.847656 -14.066406 144.984375 -12.453125 C 145.234375 -10.867188 144.882812 -9.082031 143.9375 -7.09375 C 142.8125 -4.726562 140.550781 -1.988281 137.15625 1.125 C 133.769531 4.25 128.710938 7.722656 121.984375 11.546875 C 117.523438 14.097656 112.851562 16.75 107.96875 19.5 C 103.09375 22.25 99.101562 24.890625 96 27.421875 C 93.832031 29.171875 92.378906 30.816406 91.640625 32.359375 C 90.816406 34.078125 90.785156 35.59375 91.546875 36.90625 C 92.316406 38.226562 93.5625 39.300781 95.28125 40.125 C 97.09375 40.988281 99.363281 41.539062 102.09375 41.78125 C 104.820312 42.03125 107.691406 41.8125 110.703125 41.125 C 115.054688 40.1875 119.722656 38.535156 124.703125 36.171875 C 129.679688 33.804688 135.015625 30.632812 140.703125 26.65625 C 141.273438 26.164062 141.878906 26.070312 142.515625 26.375 C 142.785156 26.5 143.0625 26.738281 143.34375 27.09375 Z M 143.34375 27.09375 "/></g></g></g><g fill="#9f9e05" fill-opacity="1"><g transform="translate(544.718912, 198.166517)"><g><path d="M 62.71875 6.765625 C 62.894531 7.472656 62.710938 8.125 62.171875 8.71875 C 61.898438 9.019531 61.660156 9.207031 61.453125 9.28125 C 56.960938 10.769531 52.375 12.132812 47.6875 13.375 C 43 14.613281 38.441406 15.492188 34.015625 16.015625 C 29.597656 16.546875 25.519531 16.46875 21.78125 15.78125 C 18.039062 15.101562 14.832031 13.539062 12.15625 11.09375 C 8.507812 7.769531 6.4375 4.175781 5.9375 0.3125 C 5.445312 -3.539062 6.828125 -7.25 10.078125 -10.8125 C 11.984375 -12.90625 14.550781 -14.894531 17.78125 -16.78125 C 21.007812 -18.675781 24.96875 -20.410156 29.65625 -21.984375 L 72.625 -36.34375 L 81.78125 -27.984375 L 39.96875 -14.015625 C 34.363281 -12.035156 29.65625 -10.191406 25.84375 -8.484375 C 22.039062 -6.785156 19.070312 -5.144531 16.9375 -3.5625 C 16.800781 -3.40625 16.628906 -3.25 16.421875 -3.09375 C 16.210938 -2.945312 16.007812 -2.757812 15.8125 -2.53125 C 14.863281 -1.5 14.125 -0.0976562 13.59375 1.671875 C 13.070312 3.441406 13.488281 5.226562 14.84375 7.03125 C 15.007812 7.289062 15.351562 7.660156 15.875 8.140625 C 17.132812 9.296875 18.90625 10.265625 21.1875 11.046875 C 23.46875 11.835938 26.421875 12.1875 30.046875 12.09375 C 34.390625 11.96875 39.148438 11.269531 44.328125 10 C 49.503906 8.738281 54.800781 7.238281 60.21875 5.5 C 60.988281 5.382812 61.640625 5.566406 62.171875 6.046875 C 62.460938 6.304688 62.644531 6.546875 62.71875 6.765625 Z M 99.40625 -32.75 C 97.300781 -31.9375 95.234375 -31.570312 93.203125 -31.65625 C 91.171875 -31.75 89.445312 -32.441406 88.03125 -33.734375 C 87.445312 -34.273438 86.953125 -34.925781 86.546875 -35.6875 C 85.441406 -38.0625 85.804688 -40.253906 87.640625 -42.265625 C 88.660156 -43.378906 90.21875 -44.335938 92.3125 -45.140625 C 94.707031 -45.960938 96.960938 -46.222656 99.078125 -45.921875 C 101.191406 -45.628906 102.84375 -44.941406 104.03125 -43.859375 C 104.625 -43.316406 105.046875 -42.734375 105.296875 -42.109375 C 106.390625 -39.878906 105.984375 -37.71875 104.078125 -35.625 C 102.859375 -34.289062 101.300781 -33.332031 99.40625 -32.75 Z M 99.40625 -32.75 "/></g></g></g><g fill="#9f9e05" fill-opacity="1"><g transform="translate(572.812655, 223.589147)"><g/></g></g><g fill="#9f9e05" fill-opacity="1"><g transform="translate(594.615729, 248.939457)"><g/></g></g></svg>