<svg xmlns="http://www.w3.org/2000/svg" xmlns:xlink="http://www.w3.org/1999/xlink" width="1000" zoomAndPan="magnify" viewBox="0 0 750 374.999991" height="500" preserveAspectRatio="xMidYMid meet" version="1.0"><defs><g/><clipPath id="2a559232a4"><rect x="0" width="590" y="0" height="280"/></clipPath><clipPath id="0954f28361"><path d="M 0 6 L 150 6 L 150 172 L 0 172 Z M 0 6 " clip-rule="nonzero"/></clipPath><clipPath id="cd0e1aee8e"><rect x="0" width="462" y="0" height="220"/></clipPath></defs><g transform="matrix(1, 0, 0, 1, 160, 95)"><g clip-path="url(#2a559232a4)"><g fill="#000000" fill-opacity="1"><g transform="translate(65.397887, 140.780389)"><g/></g></g><g fill="#000000" fill-opacity="1"><g transform="translate(84.873891, 152.946366)"><g><path d="M 57.296875 -25.609375 C 58.046875 -25.210938 58.222656 -24.640625 57.828125 -23.890625 C 57.421875 -23.128906 56.84375 -22.945312 56.09375 -23.34375 L 44.6875 -29.390625 L 23.15625 -15.28125 C 19.925781 -13.125 17.207031 -11.191406 15 -9.484375 C 12.800781 -7.785156 11.164062 -6.257812 10.09375 -4.90625 C 10.03125 -4.800781 9.941406 -4.679688 9.828125 -4.546875 C 9.722656 -4.421875 9.625 -4.269531 9.53125 -4.09375 C 9.101562 -3.28125 8.867188 -2.269531 8.828125 -1.0625 C 8.785156 0.132812 9.34375 1.1875 10.5 2.09375 C 10.632812 2.25 10.90625 2.4375 11.3125 2.65625 C 12.300781 3.175781 13.59375 3.503906 15.1875 3.640625 C 16.789062 3.785156 18.703125 3.515625 20.921875 2.828125 C 23.703125 2.078125 26.625 0.878906 29.6875 -0.765625 C 32.75 -2.410156 35.863281 -4.253906 39.03125 -6.296875 C 39.394531 -6.554688 39.8125 -6.5625 40.28125 -6.3125 C 40.507812 -6.1875 40.660156 -6.070312 40.734375 -5.96875 C 40.960938 -5.539062 40.953125 -5.09375 40.703125 -4.625 C 40.578125 -4.394531 40.457031 -4.238281 40.34375 -4.15625 C 36.851562 -1.90625 33.265625 0.207031 29.578125 2.1875 C 25.890625 4.164062 22.320312 5.523438 18.875 6.265625 C 15.4375 7.003906 12.289062 6.617188 9.4375 5.109375 C 6.59375 3.597656 4.695312 1.664062 3.75 -0.6875 C 2.8125 -3.039062 3.082031 -5.613281 4.5625 -8.40625 C 5.414062 -10.019531 6.71875 -11.703125 8.46875 -13.453125 C 10.21875 -15.203125 12.453125 -16.960938 15.171875 -18.734375 L 37.546875 -33.171875 L 30.421875 -36.953125 C 29.660156 -37.359375 29.484375 -37.941406 29.890625 -38.703125 C 30.285156 -39.453125 30.863281 -39.625 31.625 -39.21875 L 39.96875 -34.796875 L 64.109375 -50.4375 L 71.328125 -46.609375 L 47.203125 -30.96875 Z M 57.296875 -25.609375 "/></g></g></g><g fill="#000000" fill-opacity="1"><g transform="translate(108.078026, 165.736325)"><g><path d="M 69.609375 -12.640625 C 69.953125 -12.273438 70.023438 -11.851562 69.828125 -11.375 C 69.722656 -11.125 69.617188 -10.953125 69.515625 -10.859375 C 67.023438 -8.835938 64.410156 -7.453125 61.671875 -6.703125 C 58.941406 -5.960938 56.242188 -5.722656 53.578125 -5.984375 C 50.910156 -6.253906 48.425781 -6.867188 46.125 -7.828125 L 45.03125 -8.296875 C 44.0625 -7.335938 43.03125 -6.410156 41.9375 -5.515625 C 40.851562 -4.617188 39.691406 -3.710938 38.453125 -2.796875 C 33.453125 0.796875 28.484375 3.25 23.546875 4.5625 C 18.617188 5.882812 14.40625 5.882812 10.90625 4.5625 L 10.09375 4.21875 C 7.539062 3.15625 5.765625 1.738281 4.765625 -0.03125 C 3.765625 -1.800781 3.328125 -3.691406 3.453125 -5.703125 C 3.585938 -7.710938 4.007812 -9.566406 4.71875 -11.265625 C 4.84375 -11.578125 4.960938 -11.867188 5.078125 -12.140625 C 5.191406 -12.410156 5.332031 -12.660156 5.5 -12.890625 C 6.914062 -15.410156 8.765625 -17.957031 11.046875 -20.53125 C 13.328125 -23.101562 15.976562 -25.4375 19 -27.53125 C 25.300781 -31.863281 30.878906 -34.421875 35.734375 -35.203125 C 40.585938 -35.984375 44.679688 -35.675781 48.015625 -34.28125 L 49.015625 -33.859375 C 49.378906 -33.703125 49.988281 -33.335938 50.84375 -32.765625 C 51.695312 -32.191406 52.519531 -31.363281 53.3125 -30.28125 C 54.113281 -29.207031 54.609375 -27.863281 54.796875 -26.25 C 54.984375 -24.644531 54.597656 -22.691406 53.640625 -20.390625 C 53.484375 -20.023438 53.300781 -19.648438 53.09375 -19.265625 C 52.894531 -18.890625 52.660156 -18.445312 52.390625 -17.9375 C 51.703125 -16.644531 50.90625 -15.347656 50 -14.046875 C 49.09375 -12.742188 48.117188 -11.425781 47.078125 -10.09375 C 50.097656 -8.832031 53.5 -8.300781 57.28125 -8.5 C 61.070312 -8.695312 64.601562 -10.140625 67.875 -12.828125 C 68.207031 -13.109375 68.613281 -13.148438 69.09375 -12.953125 C 69.34375 -12.847656 69.515625 -12.742188 69.609375 -12.640625 Z M 49.703125 -18.40625 C 49.929688 -18.800781 50.15625 -19.21875 50.375 -19.65625 C 50.59375 -20.101562 50.796875 -20.539062 50.984375 -20.96875 C 51.234375 -21.570312 51.460938 -22.203125 51.671875 -22.859375 C 51.878906 -23.523438 51.984375 -24.210938 51.984375 -24.921875 C 52.085938 -26.515625 51.707031 -27.722656 50.84375 -28.546875 C 49.976562 -29.378906 49.15625 -29.957031 48.375 -30.28125 C 48.1875 -30.363281 48.007812 -30.421875 47.84375 -30.453125 C 47.6875 -30.484375 47.546875 -30.523438 47.421875 -30.578125 C 45.410156 -31.054688 43.738281 -30.8125 42.40625 -29.84375 C 41.070312 -28.875 40.050781 -27.71875 39.34375 -26.375 L 39.03125 -25.65625 C 38.164062 -23.582031 38.035156 -21.226562 38.640625 -18.59375 C 39.253906 -15.957031 40.929688 -13.742188 43.671875 -11.953125 L 44.5 -11.390625 C 46.613281 -13.710938 48.347656 -16.050781 49.703125 -18.40625 Z M 37.0625 -4.78125 C 38.09375 -5.570312 39.078125 -6.367188 40.015625 -7.171875 C 40.960938 -7.984375 41.851562 -8.785156 42.6875 -9.578125 C 42.625 -9.609375 42.566406 -9.648438 42.515625 -9.703125 C 42.460938 -9.765625 42.378906 -9.816406 42.265625 -9.859375 C 39.035156 -12.003906 37.039062 -14.675781 36.28125 -17.875 C 35.519531 -21.070312 35.6875 -23.976562 36.78125 -26.59375 L 37.171875 -27.5 C 37.421875 -27.957031 37.660156 -28.367188 37.890625 -28.734375 C 38.117188 -29.109375 38.363281 -29.453125 38.625 -29.765625 C 34.332031 -28.503906 30.023438 -26.285156 25.703125 -23.109375 C 22.929688 -21.066406 20.335938 -18.910156 17.921875 -16.640625 C 15.503906 -14.367188 13.660156 -12.046875 12.390625 -9.671875 C 12.171875 -9.328125 11.988281 -8.984375 11.84375 -8.640625 C 11.707031 -8.304688 11.578125 -7.992188 11.453125 -7.703125 C 10.660156 -5.816406 10.328125 -4.082031 10.453125 -2.5 C 10.578125 -0.925781 11.332031 0.328125 12.71875 1.265625 C 12.925781 1.429688 13.242188 1.601562 13.671875 1.78125 C 15.242188 2.4375 17.304688 2.601562 19.859375 2.28125 C 22.421875 1.96875 25.210938 1.210938 28.234375 0.015625 C 31.265625 -1.171875 34.207031 -2.769531 37.0625 -4.78125 Z M 37.0625 -4.78125 "/></g></g></g><g fill="#000000" fill-opacity="1"><g transform="translate(146.75948, 182.449378)"><g><path d="M 74.9375 -17.53125 C 75.28125 -17.082031 75.394531 -16.632812 75.28125 -16.1875 C 75.238281 -16.0625 75.125 -15.890625 74.9375 -15.671875 C 70.84375 -11.421875 66.5 -8.578125 61.90625 -7.140625 C 57.3125 -5.710938 52.90625 -5 48.6875 -5 C 43.3125 0.195312 38.3125 3.570312 33.6875 5.125 C 29.070312 6.6875 25.117188 7.015625 21.828125 6.109375 C 21.191406 5.929688 20.601562 5.703125 20.0625 5.421875 C 19.53125 5.140625 19.039062 4.832031 18.59375 4.5 C 17.625 3.550781 17.015625 2.410156 16.765625 1.078125 C 16.523438 -0.242188 16.578125 -1.539062 16.921875 -2.8125 C 16.921875 -2.8125 17.078125 -3.191406 17.390625 -3.953125 C 17.703125 -4.722656 18.3125 -5.59375 19.21875 -6.5625 C 20.132812 -7.539062 21.429688 -8.359375 23.109375 -9.015625 C 24.796875 -9.671875 26.984375 -9.9375 29.671875 -9.8125 C 30.609375 -9.769531 31.632812 -9.660156 32.75 -9.484375 C 33.875 -9.316406 35.082031 -9.125 36.375 -8.90625 C 37.09375 -8.769531 37.859375 -8.640625 38.671875 -8.515625 C 39.492188 -8.398438 40.328125 -8.257812 41.171875 -8.09375 C 41.367188 -8.3125 41.566406 -8.492188 41.765625 -8.640625 C 41.972656 -8.785156 42.144531 -8.984375 42.28125 -9.234375 C 44.40625 -11.222656 46.585938 -13.425781 48.828125 -15.84375 C 51.066406 -18.269531 53.035156 -20.660156 54.734375 -23.015625 C 56.429688 -25.367188 57.515625 -27.398438 57.984375 -29.109375 C 58.472656 -30.890625 58.132812 -32.148438 56.96875 -32.890625 C 56.738281 -33.003906 56.484375 -33.113281 56.203125 -33.21875 C 55.929688 -33.332031 55.632812 -33.4375 55.3125 -33.53125 C 52.914062 -34.1875 49.6875 -33.832031 45.625 -32.46875 C 41.570312 -31.101562 37.332031 -28.203125 32.90625 -23.765625 L -12.140625 21.90625 L -20.046875 19.734375 L 39.359375 -40.484375 L 47.234375 -38.328125 L 42.828125 -33.796875 C 48.554688 -36.585938 53.738281 -37.347656 58.375 -36.078125 C 60.195312 -35.578125 61.632812 -34.445312 62.6875 -32.6875 C 63.738281 -30.9375 63.828125 -28.476562 62.953125 -25.3125 C 62.347656 -23.09375 61.132812 -20.53125 59.3125 -17.625 C 57.5 -14.71875 54.859375 -11.425781 51.390625 -7.75 C 55.128906 -7.9375 58.878906 -8.738281 62.640625 -10.15625 C 66.398438 -11.570312 69.910156 -14.015625 73.171875 -17.484375 C 73.472656 -17.816406 73.878906 -17.914062 74.390625 -17.78125 C 74.648438 -17.707031 74.832031 -17.625 74.9375 -17.53125 Z M 20.375 2.140625 C 21.050781 2.660156 21.707031 3.007812 22.34375 3.1875 C 23.988281 3.632812 26.097656 3.191406 28.671875 1.859375 C 31.253906 0.523438 34.640625 -2.050781 38.828125 -5.875 L 35.90625 -6.375 C 34.675781 -6.644531 33.519531 -6.859375 32.4375 -7.015625 C 31.351562 -7.171875 30.375 -7.269531 29.5 -7.3125 C 27.226562 -7.457031 25.414062 -7.242188 24.0625 -6.671875 C 22.707031 -6.097656 21.695312 -5.40625 21.03125 -4.59375 C 20.375 -3.78125 19.910156 -3.140625 19.640625 -2.671875 C 19.515625 -2.492188 19.398438 -2.210938 19.296875 -1.828125 C 18.960938 -0.628906 19.03125 0.300781 19.5 0.96875 C 19.96875 1.632812 20.257812 2.023438 20.375 2.140625 Z M 20.375 2.140625 "/></g></g></g><g fill="#000000" fill-opacity="1"><g transform="translate(198.942441, 196.809253)"><g><path d="M 61.140625 -16.578125 C 61.515625 -16.328125 61.664062 -15.941406 61.59375 -15.421875 C 61.5625 -15.160156 61.503906 -14.96875 61.421875 -14.84375 C 58.941406 -11.519531 56.320312 -8.28125 53.5625 -5.125 C 50.8125 -1.96875 47.925781 0.535156 44.90625 2.390625 C 41.882812 4.253906 38.738281 4.976562 35.46875 4.5625 C 32.28125 4.15625 29.84375 3.03125 28.15625 1.1875 C 26.476562 -0.644531 25.832031 -3.0625 26.21875 -6.0625 C 26.257812 -6.320312 26.296875 -6.597656 26.328125 -6.890625 C 26.367188 -7.179688 26.4375 -7.453125 26.53125 -7.703125 C 23.613281 -4.640625 20.726562 -2.3125 17.875 -0.71875 C 15.03125 0.863281 12.363281 1.523438 9.875 1.265625 L 9.484375 1.21875 C 7.140625 0.914062 5.335938 0.140625 4.078125 -1.109375 C 2.816406 -2.359375 1.992188 -3.835938 1.609375 -5.546875 C 1.234375 -7.253906 1.160156 -8.988281 1.390625 -10.75 C 1.429688 -11.144531 1.472656 -11.519531 1.515625 -11.875 C 1.566406 -12.226562 1.644531 -12.566406 1.75 -12.890625 C 2.507812 -15.640625 3.679688 -18.535156 5.265625 -21.578125 C 6.847656 -24.617188 8.78125 -27.546875 11.0625 -30.359375 C 14.601562 -34.753906 17.914062 -38.125 21 -40.46875 C 24.09375 -42.8125 26.929688 -44.382812 29.515625 -45.1875 C 32.109375 -45.988281 34.410156 -46.257812 36.421875 -46 C 37.265625 -45.882812 38.03125 -45.695312 38.71875 -45.4375 C 39.414062 -45.1875 40.078125 -44.890625 40.703125 -44.546875 C 42.015625 -43.847656 42.898438 -42.851562 43.359375 -41.5625 C 43.816406 -40.28125 43.9375 -38.796875 43.71875 -37.109375 C 43.644531 -36.515625 43.535156 -35.910156 43.390625 -35.296875 C 43.253906 -34.679688 43.070312 -34.03125 42.84375 -33.34375 L 50.296875 -43.40625 L 58.421875 -42.359375 L 41.234375 -19.234375 C 38.671875 -15.785156 36.765625 -12.945312 35.515625 -10.71875 C 34.265625 -8.5 33.363281 -6.5625 32.8125 -4.90625 C 32.789062 -4.78125 32.753906 -4.640625 32.703125 -4.484375 C 32.648438 -4.328125 32.613281 -4.148438 32.59375 -3.953125 C 32.476562 -3.035156 32.613281 -2.019531 33 -0.90625 C 33.394531 0.195312 34.285156 1.003906 35.671875 1.515625 C 35.859375 1.609375 36.050781 1.664062 36.25 1.6875 C 36.445312 1.71875 36.644531 1.742188 36.84375 1.765625 C 37.945312 1.910156 39.238281 1.75 40.71875 1.28125 C 42.207031 0.8125 43.867188 -0.101562 45.703125 -1.46875 C 47.972656 -3.164062 50.253906 -5.320312 52.546875 -7.9375 C 54.835938 -10.5625 57.097656 -13.351562 59.328125 -16.3125 C 59.648438 -16.726562 60.039062 -16.910156 60.5 -16.859375 C 60.695312 -16.828125 60.910156 -16.734375 61.140625 -16.578125 Z M 17.234375 -3.4375 C 21.378906 -5.757812 25.722656 -9.9375 30.265625 -15.96875 C 31.003906 -17.007812 31.941406 -18.367188 33.078125 -20.046875 C 34.222656 -21.722656 35.351562 -23.5625 36.46875 -25.5625 C 37.59375 -27.570312 38.582031 -29.578125 39.4375 -31.578125 C 40.289062 -33.585938 40.820312 -35.410156 41.03125 -37.046875 C 41.175781 -38.148438 41.140625 -39.128906 40.921875 -39.984375 C 40.703125 -40.847656 40.257812 -41.550781 39.59375 -42.09375 C 39.113281 -42.488281 38.546875 -42.726562 37.890625 -42.8125 C 36.328125 -43.007812 34.46875 -42.4375 32.3125 -41.09375 C 30.15625 -39.75 27.882812 -37.921875 25.5 -35.609375 C 23.113281 -33.304688 20.851562 -30.800781 18.71875 -28.09375 C 16.570312 -25.320312 14.671875 -22.535156 13.015625 -19.734375 C 11.367188 -16.929688 10.179688 -14.222656 9.453125 -11.609375 C 9.117188 -10.585938 8.890625 -9.585938 8.765625 -8.609375 C 8.503906 -6.597656 8.703125 -5.050781 9.359375 -3.96875 C 10.015625 -2.882812 10.960938 -2.257812 12.203125 -2.09375 C 13.566406 -1.925781 15.242188 -2.375 17.234375 -3.4375 Z M 17.234375 -3.4375 "/></g></g></g><g fill="#000000" fill-opacity="1"><g transform="translate(249.636918, 202.726217)"><g/></g></g><g fill="#000000" fill-opacity="1"><g transform="translate(273.231191, 205.728973)"><g><path d="M 88.640625 -34.78125 C 89.054688 -34.632812 89.296875 -34.296875 89.359375 -33.765625 C 89.390625 -33.503906 89.375 -33.304688 89.3125 -33.171875 C 86.050781 -25.316406 82.421875 -19.222656 78.421875 -14.890625 C 74.429688 -10.554688 69.988281 -8.109375 65.09375 -7.546875 C 62.882812 -7.285156 61.035156 -7.398438 59.546875 -7.890625 C 58.066406 -8.378906 57.007812 -9.113281 56.375 -10.09375 C 55.65625 -11.144531 55.210938 -12.359375 55.046875 -13.734375 C 54.765625 -16.203125 55.347656 -19.304688 56.796875 -23.046875 C 58.253906 -26.796875 60.5 -31.257812 63.53125 -36.4375 C 64.976562 -38.78125 66.382812 -41.171875 67.75 -43.609375 C 69.125 -46.046875 70.28125 -48.648438 71.21875 -51.421875 C 71.269531 -51.554688 71.375 -51.910156 71.53125 -52.484375 C 71.695312 -53.066406 71.753906 -53.625 71.703125 -54.15625 C 71.640625 -54.601562 71.46875 -54.941406 71.1875 -55.171875 C 70.894531 -55.398438 70.597656 -55.53125 70.296875 -55.5625 C 69.992188 -55.59375 69.679688 -55.59375 69.359375 -55.5625 C 69.222656 -55.539062 69.070312 -55.503906 68.90625 -55.453125 C 68.75 -55.410156 68.609375 -55.378906 68.484375 -55.359375 C 67.265625 -55.015625 66.039062 -54.441406 64.8125 -53.640625 C 63.59375 -52.835938 62.390625 -51.875 61.203125 -50.75 C 57.910156 -47.71875 55.015625 -44.398438 52.515625 -40.796875 C 50.023438 -37.203125 47.941406 -33.769531 46.265625 -30.5 C 44.597656 -27.238281 43.320312 -24.566406 42.4375 -22.484375 L 35.046875 -4.859375 L 27.015625 -3.921875 C 29.972656 -11.015625 32.363281 -16.78125 34.1875 -21.21875 C 36.019531 -25.664062 37.453125 -29.140625 38.484375 -31.640625 C 39.523438 -34.140625 40.265625 -35.925781 40.703125 -37 C 41.140625 -38.082031 41.410156 -38.726562 41.515625 -38.9375 C 41.617188 -39.144531 41.671875 -39.25 41.671875 -39.25 C 42.566406 -41.269531 43.300781 -43.382812 43.875 -45.59375 C 44.445312 -47.8125 44.660156 -49.546875 44.515625 -50.796875 C 44.453125 -51.316406 44.304688 -51.695312 44.078125 -51.9375 C 43.566406 -52.34375 42.957031 -52.503906 42.25 -52.421875 C 42.113281 -52.398438 41.984375 -52.363281 41.859375 -52.3125 C 41.734375 -52.269531 41.601562 -52.242188 41.46875 -52.234375 C 40.25 -51.890625 39.007812 -51.3125 37.75 -50.5 C 36.488281 -49.695312 35.257812 -48.734375 34.0625 -47.609375 C 31.007812 -44.804688 28.300781 -41.757812 25.9375 -38.46875 C 23.570312 -35.1875 21.539062 -31.992188 19.84375 -28.890625 C 18.15625 -25.785156 16.851562 -23.117188 15.9375 -20.890625 L 7.9375 -1.71875 L -0.09375 -0.78125 L 21.328125 -52.265625 L 29.453125 -53.21875 L 23.6875 -39.453125 C 25.570312 -42.117188 27.570312 -44.613281 29.6875 -46.9375 C 31.800781 -49.257812 33.988281 -51.21875 36.25 -52.8125 C 38.507812 -54.40625 40.78125 -55.332031 43.0625 -55.59375 C 44.164062 -55.726562 45.222656 -55.71875 46.234375 -55.5625 C 47.253906 -55.40625 48.078125 -54.90625 48.703125 -54.0625 C 49.535156 -53.03125 50.039062 -51.765625 50.21875 -50.265625 C 50.519531 -47.585938 49.828125 -43.640625 48.140625 -38.421875 C 50.078125 -41.546875 52.226562 -44.601562 54.59375 -47.59375 C 56.96875 -50.582031 59.472656 -53.109375 62.109375 -55.171875 C 64.742188 -57.234375 67.429688 -58.421875 70.171875 -58.734375 C 71.285156 -58.867188 72.347656 -58.859375 73.359375 -58.703125 C 74.367188 -58.554688 75.1875 -58.054688 75.8125 -57.203125 C 76.5 -56.421875 76.925781 -55.3125 77.09375 -53.875 C 77.289062 -52.175781 76.992188 -49.875 76.203125 -46.96875 C 75.410156 -44.070312 73.816406 -40.398438 71.421875 -35.953125 C 69.847656 -32.992188 68.1875 -29.910156 66.4375 -26.703125 C 64.695312 -23.492188 63.410156 -20.644531 62.578125 -18.15625 C 61.972656 -16.4375 61.738281 -15.023438 61.875 -13.921875 C 62.007812 -12.679688 62.519531 -11.832031 63.40625 -11.375 C 64.289062 -10.914062 65.351562 -10.757812 66.59375 -10.90625 C 67.894531 -11.050781 69.34375 -11.53125 70.9375 -12.34375 C 72.53125 -13.15625 74.035156 -14.269531 75.453125 -15.6875 C 77.546875 -17.71875 79.554688 -20.25 81.484375 -23.28125 C 83.410156 -26.3125 85.257812 -29.914062 87.03125 -34.09375 C 87.15625 -34.570312 87.453125 -34.835938 87.921875 -34.890625 C 88.117188 -34.910156 88.359375 -34.875 88.640625 -34.78125 Z M 88.640625 -34.78125 "/></g></g></g><g fill="#000000" fill-opacity="1"><g transform="translate(357.306984, 193.909481)"><g><path d="M 25.703125 -32.15625 C 26.148438 -32.007812 26.445312 -31.679688 26.59375 -31.171875 C 26.65625 -30.921875 26.671875 -30.722656 26.640625 -30.578125 C 25.890625 -27.585938 25.035156 -24.582031 24.078125 -21.5625 C 23.128906 -18.550781 22.019531 -15.734375 20.75 -13.109375 C 19.476562 -10.484375 18 -8.265625 16.3125 -6.453125 C 14.632812 -4.640625 12.648438 -3.421875 10.359375 -2.796875 C 7.253906 -1.960938 4.550781 -2.082031 2.25 -3.15625 C -0.0390625 -4.238281 -1.597656 -6.304688 -2.421875 -9.359375 C -2.898438 -11.128906 -3.09375 -13.234375 -3 -15.671875 C -2.914062 -18.109375 -2.484375 -20.898438 -1.703125 -24.046875 L 5.453125 -52.703125 L 13.25 -54.8125 L 6.3125 -26.921875 C 5.414062 -23.140625 4.769531 -19.898438 4.375 -17.203125 C 3.976562 -14.515625 3.847656 -12.304688 3.984375 -10.578125 C 4.015625 -10.441406 4.035156 -10.285156 4.046875 -10.109375 C 4.066406 -9.941406 4.101562 -9.765625 4.15625 -9.578125 C 4.394531 -8.691406 4.90625 -7.796875 5.6875 -6.890625 C 6.476562 -5.984375 7.601562 -5.59375 9.0625 -5.71875 C 9.28125 -5.707031 9.609375 -5.765625 10.046875 -5.890625 C 11.117188 -6.171875 12.273438 -6.800781 13.515625 -7.78125 C 14.753906 -8.757812 15.984375 -10.269531 17.203125 -12.3125 C 18.640625 -14.738281 19.914062 -17.597656 21.03125 -20.890625 C 22.15625 -24.191406 23.1875 -27.632812 24.125 -31.21875 C 24.332031 -31.6875 24.664062 -31.984375 25.125 -32.109375 C 25.375 -32.171875 25.566406 -32.1875 25.703125 -32.15625 Z M 16.828125 -66.1875 C 16.535156 -64.757812 16.007812 -63.5 15.25 -62.40625 C 14.488281 -61.3125 13.503906 -60.601562 12.296875 -60.28125 C 11.796875 -60.144531 11.257812 -60.101562 10.6875 -60.15625 C 9.007812 -60.375 7.9375 -61.34375 7.46875 -63.0625 C 7.21875 -64.007812 7.234375 -65.203125 7.515625 -66.640625 C 7.898438 -68.242188 8.539062 -69.570312 9.4375 -70.625 C 10.34375 -71.6875 11.304688 -72.359375 12.328125 -72.640625 C 12.835938 -72.773438 13.304688 -72.800781 13.734375 -72.71875 C 15.347656 -72.539062 16.394531 -71.566406 16.875 -69.796875 C 17.175781 -68.648438 17.160156 -67.445312 16.828125 -66.1875 Z M 16.828125 -66.1875 "/></g></g></g><g fill="#000000" fill-opacity="1"><g transform="translate(382.327857, 187.167588)"><g/></g></g><g fill="#000000" fill-opacity="1"><g transform="translate(405.478062, 181.711722)"><g><path d="M 70.828125 -63.640625 C 71.265625 -63.640625 71.609375 -63.398438 71.859375 -62.921875 C 71.972656 -62.691406 72.023438 -62.503906 72.015625 -62.359375 C 71.722656 -53.867188 70.460938 -46.894531 68.234375 -41.4375 C 66.015625 -35.976562 62.710938 -32.125 58.328125 -29.875 C 56.335938 -28.863281 54.566406 -28.328125 53.015625 -28.265625 C 51.460938 -28.203125 50.210938 -28.519531 49.265625 -29.21875 C 48.222656 -29.9375 47.382812 -30.914062 46.75 -32.15625 C 45.613281 -34.363281 45.066406 -37.472656 45.109375 -41.484375 C 45.160156 -45.503906 45.703125 -50.472656 46.734375 -56.390625 C 47.273438 -59.097656 47.753906 -61.832031 48.171875 -64.59375 C 48.597656 -67.363281 48.769531 -70.203125 48.6875 -73.109375 C 48.6875 -73.253906 48.660156 -73.625 48.609375 -74.21875 C 48.566406 -74.820312 48.421875 -75.359375 48.171875 -75.828125 C 47.960938 -76.242188 47.679688 -76.507812 47.328125 -76.625 C 46.984375 -76.726562 46.660156 -76.742188 46.359375 -76.671875 C 46.066406 -76.597656 45.78125 -76.488281 45.5 -76.34375 C 45.375 -76.28125 45.242188 -76.195312 45.109375 -76.09375 C 44.972656 -75.988281 44.847656 -75.90625 44.734375 -75.84375 C 43.710938 -75.09375 42.765625 -74.128906 41.890625 -72.953125 C 41.023438 -71.773438 40.238281 -70.445312 39.53125 -68.96875 C 37.507812 -64.976562 35.957031 -60.863281 34.875 -56.625 C 33.800781 -52.382812 33.054688 -48.441406 32.640625 -44.796875 C 32.222656 -41.148438 31.960938 -38.1875 31.859375 -35.90625 L 31.125 -16.8125 L 23.9375 -13.140625 C 24.21875 -20.828125 24.4375 -27.066406 24.59375 -31.859375 C 24.75 -36.660156 24.875 -40.414062 24.96875 -43.125 C 25.0625 -45.832031 25.117188 -47.765625 25.140625 -48.921875 C 25.171875 -50.085938 25.203125 -50.785156 25.234375 -51.015625 C 25.265625 -51.253906 25.28125 -51.375 25.28125 -51.375 C 25.40625 -53.570312 25.347656 -55.804688 25.109375 -58.078125 C 24.867188 -60.359375 24.460938 -62.054688 23.890625 -63.171875 C 23.648438 -63.640625 23.382812 -63.945312 23.09375 -64.09375 C 22.46875 -64.289062 21.835938 -64.226562 21.203125 -63.90625 C 21.085938 -63.84375 20.972656 -63.765625 20.859375 -63.671875 C 20.753906 -63.578125 20.644531 -63.5 20.53125 -63.4375 C 19.507812 -62.695312 18.546875 -61.726562 17.640625 -60.53125 C 16.742188 -59.332031 15.9375 -57.992188 15.21875 -56.515625 C 13.351562 -52.828125 11.882812 -49.03125 10.8125 -45.125 C 9.75 -41.226562 8.96875 -37.53125 8.46875 -34.03125 C 7.976562 -30.53125 7.691406 -27.570312 7.609375 -25.15625 L 6.828125 -4.375 L -0.359375 -0.6875 L 1.65625 -56.4375 L 8.9375 -60.15625 L 8.359375 -45.25 C 9.191406 -48.414062 10.1875 -51.457031 11.34375 -54.375 C 12.507812 -57.289062 13.867188 -59.882812 15.421875 -62.15625 C 16.984375 -64.4375 18.789062 -66.101562 20.84375 -67.15625 C 21.832031 -67.664062 22.828125 -68.023438 23.828125 -68.234375 C 24.835938 -68.453125 25.785156 -68.269531 26.671875 -67.6875 C 27.804688 -67.019531 28.722656 -66.015625 29.421875 -64.671875 C 30.648438 -62.273438 31.378906 -58.332031 31.609375 -52.84375 C 32.335938 -56.457031 33.285156 -60.078125 34.453125 -63.703125 C 35.628906 -67.335938 37.085938 -70.582031 38.828125 -73.4375 C 40.578125 -76.289062 42.679688 -78.34375 45.140625 -79.59375 C 46.128906 -80.101562 47.125 -80.46875 48.125 -80.6875 C 49.132812 -80.90625 50.078125 -80.722656 50.953125 -80.140625 C 51.867188 -79.648438 52.65625 -78.765625 53.3125 -77.484375 C 54.09375 -75.960938 54.625 -73.703125 54.90625 -70.703125 C 55.1875 -67.710938 54.984375 -63.710938 54.296875 -58.703125 C 53.847656 -55.390625 53.367188 -51.921875 52.859375 -48.296875 C 52.359375 -44.679688 52.15625 -41.566406 52.25 -38.953125 C 52.289062 -37.117188 52.5625 -35.707031 53.0625 -34.71875 C 53.632812 -33.601562 54.414062 -32.984375 55.40625 -32.859375 C 56.394531 -32.742188 57.441406 -32.972656 58.546875 -33.546875 C 59.722656 -34.140625 60.910156 -35.097656 62.109375 -36.421875 C 63.316406 -37.742188 64.34375 -39.3125 65.1875 -41.125 C 66.414062 -43.769531 67.398438 -46.847656 68.140625 -50.359375 C 68.890625 -53.878906 69.363281 -57.898438 69.5625 -62.421875 C 69.519531 -62.910156 69.707031 -63.265625 70.125 -63.484375 C 70.300781 -63.578125 70.535156 -63.628906 70.828125 -63.640625 Z M 70.828125 -63.640625 "/></g></g></g><g fill="#000000" fill-opacity="1"><g transform="translate(480.282671, 141.316423)"><g><path d="M 20.03125 -45.53125 C 20.46875 -45.601562 20.84375 -45.429688 21.15625 -45.015625 C 21.3125 -44.796875 21.398438 -44.613281 21.421875 -44.46875 C 21.828125 -41.269531 22.0625 -38 22.125 -34.65625 C 22.195312 -31.3125 21.941406 -28.035156 21.359375 -24.828125 C 20.773438 -21.617188 19.695312 -18.617188 18.125 -15.828125 C 16.5625 -13.035156 14.300781 -10.550781 11.34375 -8.375 C 8.21875 -6.070312 5.4375 -4.859375 3 -4.734375 C 0.5625 -4.609375 -1.53125 -5.117188 -3.28125 -6.265625 C -5.03125 -7.421875 -6.453125 -8.742188 -7.546875 -10.234375 C -7.859375 -10.648438 -8.128906 -11.039062 -8.359375 -11.40625 C -8.585938 -11.769531 -8.789062 -12.132812 -8.96875 -12.5 C -10.300781 -14.945312 -11.3125 -17.523438 -12 -20.234375 C -12.695312 -22.953125 -13.203125 -26.070312 -13.515625 -29.59375 C -13.710938 -31.726562 -13.769531 -34.125 -13.6875 -36.78125 C -13.613281 -39.445312 -13.3125 -42.164062 -12.78125 -44.9375 C -12.25 -47.707031 -11.40625 -50.273438 -10.25 -52.640625 C -9.101562 -55.003906 -7.550781 -56.90625 -5.59375 -58.34375 C -5.28125 -58.582031 -4.722656 -58.929688 -3.921875 -59.390625 C -3.117188 -59.859375 -2.15625 -60.21875 -1.03125 -60.46875 C 0.0820312 -60.71875 1.265625 -60.613281 2.515625 -60.15625 C 3.992188 -59.695312 5.28125 -58.726562 6.375 -57.25 C 6.882812 -56.5625 7.332031 -55.789062 7.71875 -54.9375 C 8.101562 -54.082031 8.359375 -53.128906 8.484375 -52.078125 C 9.023438 -48.796875 8.957031 -45.78125 8.28125 -43.03125 C 7.613281 -40.289062 6.550781 -37.773438 5.09375 -35.484375 C 3.644531 -33.191406 2.03125 -31.117188 0.25 -29.265625 C -1.53125 -27.421875 -3.253906 -25.804688 -4.921875 -24.421875 C -4.847656 -23.890625 -4.734375 -23.351562 -4.578125 -22.8125 C -4.429688 -22.269531 -4.285156 -21.734375 -4.140625 -21.203125 C -3.265625 -18.242188 -2.179688 -15.894531 -0.890625 -14.15625 C 0.898438 -11.726562 2.914062 -10.460938 5.15625 -10.359375 C 7.394531 -10.265625 9.519531 -10.957031 11.53125 -12.4375 L 12.15625 -12.90625 C 15.425781 -15.5625 17.628906 -19.410156 18.765625 -24.453125 C 19.898438 -29.492188 19.96875 -36.0625 18.96875 -44.15625 C 18.894531 -44.570312 19.070312 -44.9375 19.5 -45.25 C 19.707031 -45.40625 19.882812 -45.5 20.03125 -45.53125 Z M -3 -56.34375 C -4.007812 -55.601562 -4.75 -54.140625 -5.21875 -51.953125 C -5.6875 -49.765625 -5.972656 -47.21875 -6.078125 -44.3125 C -6.191406 -41.414062 -6.164062 -38.453125 -6 -35.421875 C -5.84375 -32.398438 -5.644531 -29.675781 -5.40625 -27.25 C -3.820312 -28.75 -2.148438 -30.632812 -0.390625 -32.90625 C 1.359375 -35.175781 2.75 -37.796875 3.78125 -40.765625 C 4.8125 -43.734375 4.992188 -46.890625 4.328125 -50.234375 C 3.878906 -52.273438 3.207031 -53.898438 2.3125 -55.109375 C 0.664062 -57.335938 -1.101562 -57.75 -3 -56.34375 Z M -3 -56.34375 "/></g></g></g><g fill="#000000" fill-opacity="1"><g transform="translate(509.704807, 119.743068)"><g><path d="M 16.15625 -47.390625 C 16.613281 -47.460938 17.003906 -47.320312 17.328125 -46.96875 C 17.492188 -46.78125 17.59375 -46.617188 17.625 -46.484375 C 18.84375 -41.117188 19.414062 -36.125 19.34375 -31.5 C 19.269531 -26.875 18.253906 -22.484375 16.296875 -18.328125 C 14.347656 -14.171875 11.207031 -10.132812 6.875 -6.21875 C 4.382812 -3.96875 1.820312 -2.976562 -0.8125 -3.25 C -1.550781 -3.382812 -2.238281 -3.5625 -2.875 -3.78125 C -3.46875 -4.03125 -4.007812 -4.425781 -4.5 -4.96875 C -5.113281 -5.65625 -5.53125 -6.382812 -5.75 -7.15625 C -5.96875 -7.9375 -6.09375 -8.398438 -6.125 -8.546875 C -6.25 -9.671875 -6.144531 -10.6875 -5.8125 -11.59375 C -5.488281 -12.507812 -5.039062 -13.226562 -4.46875 -13.75 C -4.113281 -14.070312 -3.847656 -14.273438 -3.671875 -14.359375 C -2.441406 -14.847656 -1.320312 -14.53125 -0.3125 -13.40625 C 0 -13.0625 0.269531 -12.660156 0.5 -12.203125 C 0.738281 -11.753906 0.921875 -11.226562 1.046875 -10.625 C 1.234375 -9.820312 1.3125 -9.015625 1.28125 -8.203125 C 1.257812 -7.390625 1.097656 -6.660156 0.796875 -6.015625 C 1.960938 -6.191406 3.128906 -6.804688 4.296875 -7.859375 L 4.953125 -8.46875 C 6.140625 -9.707031 6.742188 -11.488281 6.765625 -13.8125 C 6.796875 -16.144531 6.25 -18.789062 5.125 -21.75 C 4 -24.71875 2.234375 -27.773438 -0.171875 -30.921875 C -3.265625 -35.023438 -5.65625 -38.945312 -7.34375 -42.6875 C -9.039062 -46.425781 -9.785156 -49.84375 -9.578125 -52.9375 C -11.742188 -49.664062 -13.078125 -46.363281 -13.578125 -43.03125 C -14.085938 -39.707031 -14.085938 -36.347656 -13.578125 -32.953125 C -13.066406 -29.554688 -12.390625 -26.070312 -11.546875 -22.5 L -11.109375 -20.375 C -10.941406 -19.90625 -11.050781 -19.492188 -11.4375 -19.140625 C -11.53125 -19.054688 -11.722656 -18.972656 -12.015625 -18.890625 C -12.441406 -18.773438 -12.828125 -18.910156 -13.171875 -19.296875 C -13.347656 -19.484375 -13.460938 -19.648438 -13.515625 -19.796875 L -14.015625 -21.984375 C -14.785156 -25.378906 -15.429688 -28.742188 -15.953125 -32.078125 C -16.484375 -35.410156 -16.582031 -38.75 -16.25 -42.09375 C -15.914062 -45.445312 -14.847656 -48.820312 -13.046875 -52.21875 C -11.242188 -55.613281 -8.441406 -59.03125 -4.640625 -62.46875 C -4.003906 -63.039062 -3.398438 -63.007812 -2.828125 -62.375 C -2.253906 -61.75 -2.285156 -61.148438 -2.921875 -60.578125 C -2.921875 -60.578125 -2.929688 -60.5625 -2.953125 -60.53125 C -2.984375 -60.507812 -3.066406 -60.4375 -3.203125 -60.3125 C -4.722656 -58.945312 -5.484375 -57.332031 -5.484375 -55.46875 C -5.492188 -53.601562 -4.957031 -51.609375 -3.875 -49.484375 C -2.800781 -47.367188 -1.425781 -45.132812 0.25 -42.78125 C 1.925781 -40.4375 3.675781 -38.109375 5.5 -35.796875 C 8.257812 -32.253906 10.203125 -28.847656 11.328125 -25.578125 C 12.460938 -22.316406 12.847656 -19.28125 12.484375 -16.46875 C 14.554688 -19.75 15.894531 -22.988281 16.5 -26.1875 C 17.113281 -29.394531 17.234375 -32.625 16.859375 -35.875 C 16.484375 -39.125 15.921875 -42.441406 15.171875 -45.828125 C 15.148438 -46.347656 15.3125 -46.765625 15.65625 -47.078125 C 15.851562 -47.253906 16.019531 -47.359375 16.15625 -47.390625 Z M 16.15625 -47.390625 "/></g></g></g></g></g><g transform="matrix(1, 0, 0, 1, 0, 0)"><g clip-path="url(#cd0e1aee8e)"><g clip-path="url(#0954f28361)"><g fill="#000000" fill-opacity="1"><g transform="translate(52.586945, 153.291957)"><g><path d="M -0.4375 -134.90625 C 2.226562 -136.976562 4.921875 -138.203125 7.640625 -138.578125 C 10.359375 -138.953125 13.015625 -138.710938 15.609375 -137.859375 C 18.203125 -137.003906 20.65625 -135.78125 22.96875 -134.1875 C 25.28125 -132.601562 27.382812 -130.847656 29.28125 -128.921875 C 30.332031 -127.847656 31.304688 -126.757812 32.203125 -125.65625 C 33.109375 -124.5625 33.929688 -123.5 34.671875 -122.46875 C 37.523438 -118.445312 40.195312 -113.929688 42.6875 -108.921875 C 45.1875 -103.910156 47.390625 -98.632812 49.296875 -93.09375 C 51.210938 -87.550781 52.753906 -81.941406 53.921875 -76.265625 C 54.691406 -72.503906 55.289062 -68.320312 55.71875 -63.71875 C 56.144531 -59.113281 56.269531 -54.28125 56.09375 -49.21875 C 55.925781 -44.15625 55.320312 -39.0625 54.28125 -33.9375 C 53.25 -28.8125 51.644531 -23.816406 49.46875 -18.953125 C 47.300781 -14.085938 44.410156 -9.550781 40.796875 -5.34375 C 40.378906 -4.832031 39.957031 -4.347656 39.53125 -3.890625 C 39.113281 -3.429688 38.671875 -2.972656 38.203125 -2.515625 C 33.710938 1.910156 29.023438 4.707031 24.140625 5.875 C 19.253906 7.050781 14.378906 6.738281 9.515625 4.9375 C 4.648438 3.144531 0.0234375 0.0234375 -4.359375 -4.421875 C -6.429688 -6.523438 -8.441406 -8.921875 -10.390625 -11.609375 C -12.347656 -14.296875 -14.195312 -17.269531 -15.9375 -20.53125 C -18.832031 -25.894531 -21.039062 -32.523438 -22.5625 -40.421875 C -24.082031 -48.328125 -24.601562 -57.695312 -24.125 -68.53125 C -24.101562 -69.632812 -23.859375 -70.421875 -23.390625 -70.890625 C -23.148438 -71.117188 -22.988281 -71.234375 -22.90625 -71.234375 C -22.4375 -71.242188 -22.085938 -71.128906 -21.859375 -70.890625 C -21.578125 -70.609375 -21.398438 -70.046875 -21.328125 -69.203125 C -21.328125 -69.203125 -21.296875 -68.398438 -21.234375 -66.796875 C -21.171875 -65.191406 -21.007812 -63.039062 -20.75 -60.34375 C -20.488281 -57.65625 -20.066406 -54.632812 -19.484375 -51.28125 C -18.910156 -47.9375 -18.054688 -44.519531 -16.921875 -41.03125 C -14.867188 -34.644531 -12.28125 -28.722656 -9.15625 -23.265625 C -6.039062 -17.804688 -2.640625 -13.207031 1.046875 -9.46875 C 4.691406 -5.769531 8.539062 -3.054688 12.59375 -1.328125 C 16.644531 0.390625 20.773438 0.859375 24.984375 0.078125 C 29.191406 -0.703125 33.351562 -3.082031 37.46875 -7.0625 C 39.476562 -9.039062 41.128906 -11.148438 42.421875 -13.390625 C 43.722656 -15.628906 44.800781 -17.910156 45.65625 -20.234375 C 47.445312 -24.960938 48.628906 -30.144531 49.203125 -35.78125 C 49.785156 -41.425781 49.863281 -47.289062 49.4375 -53.375 C 49.007812 -59.457031 48.171875 -65.53125 46.921875 -71.59375 C 45.160156 -80.28125 42.859375 -88.546875 40.015625 -96.390625 C 37.171875 -104.242188 33.84375 -111.039062 30.03125 -116.78125 C 29.019531 -118.28125 27.742188 -120.113281 26.203125 -122.28125 C 24.660156 -124.457031 22.921875 -126.53125 20.984375 -128.5 C 19.222656 -130.269531 17.347656 -131.785156 15.359375 -133.046875 C 13.378906 -134.316406 11.367188 -135.007812 9.328125 -135.125 C 7.785156 -135.1875 6.140625 -134.835938 4.390625 -134.078125 C 2.648438 -133.328125 0.984375 -132.164062 -0.609375 -130.59375 C -1.691406 -129.53125 -2.695312 -128.257812 -3.625 -126.78125 C -5.738281 -123.488281 -7.4375 -119.503906 -8.71875 -114.828125 C -10.007812 -110.148438 -10.769531 -105.113281 -11 -99.71875 C -11.226562 -94.332031 -10.8125 -88.835938 -9.75 -83.234375 C -8.695312 -77.628906 -6.847656 -72.21875 -4.203125 -67 C -1.722656 -62.050781 0.878906 -58.195312 3.609375 -55.4375 C 5.722656 -53.289062 7.890625 -51.835938 10.109375 -51.078125 C 12.335938 -50.316406 14.550781 -50.367188 16.75 -51.234375 C 18.5625 -52.015625 20.070312 -53.003906 21.28125 -54.203125 C 24.789062 -57.660156 26.148438 -63.0625 25.359375 -70.40625 C 24.984375 -73.707031 24.382812 -76.753906 23.5625 -79.546875 C 22.507812 -82.753906 21.179688 -85.523438 19.578125 -87.859375 C 17.972656 -90.203125 16.429688 -92.125 14.953125 -93.625 C 13.890625 -94.695312 12.929688 -95.570312 12.078125 -96.25 C 11.222656 -96.925781 10.609375 -97.40625 10.234375 -97.6875 C 10.140625 -97.78125 10.023438 -97.875 9.890625 -97.96875 C 9.753906 -98.0625 9.640625 -98.15625 9.546875 -98.25 C 8.390625 -99.425781 8.238281 -100.660156 9.09375 -101.953125 C 9.519531 -102.367188 10.085938 -102.539062 10.796875 -102.46875 C 11.515625 -102.394531 12.359375 -101.910156 13.328125 -101.015625 C 13.566406 -100.773438 13.832031 -100.53125 14.125 -100.28125 C 14.414062 -100.03125 14.679688 -99.785156 14.921875 -99.546875 C 17.503906 -96.929688 19.550781 -94.359375 21.0625 -91.828125 C 22.582031 -89.304688 23.660156 -87.234375 24.296875 -85.609375 C 24.941406 -83.984375 25.265625 -83.171875 25.265625 -83.171875 C 25.898438 -81.390625 26.472656 -79.460938 26.984375 -77.390625 C 27.503906 -75.316406 27.894531 -73.070312 28.15625 -70.65625 C 28.550781 -66.53125 28.238281 -62.691406 27.21875 -59.140625 C 26.195312 -55.597656 24.582031 -52.738281 22.375 -50.5625 C 19.664062 -47.882812 16.820312 -46.328125 13.84375 -45.890625 C 10.875 -45.453125 7.941406 -45.878906 5.046875 -47.171875 C 2.148438 -48.472656 -0.5 -50.335938 -2.90625 -52.765625 C -5.675781 -55.578125 -7.972656 -58.84375 -9.796875 -62.5625 C -12.273438 -67.519531 -14.125 -72.832031 -15.34375 -78.5 C -16.5625 -84.175781 -17.109375 -89.90625 -16.984375 -95.6875 C -16.867188 -101.46875 -16.070312 -107.023438 -14.59375 -112.359375 C -13.125 -117.691406 -10.882812 -122.484375 -7.875 -126.734375 C -6.226562 -129.085938 -4.539062 -131.117188 -2.8125 -132.828125 C -2.394531 -133.242188 -1.988281 -133.625 -1.59375 -133.96875 C -1.195312 -134.320312 -0.8125 -134.632812 -0.4375 -134.90625 Z M -0.4375 -134.90625 "/></g></g></g></g><g fill="#000000" fill-opacity="1"><g transform="translate(126.753136, 87.275416)"><g><path d="M 33.8125 -40.71875 C 34.375 -40.601562 34.742188 -40.332031 34.921875 -39.90625 C 34.972656 -39.789062 34.988281 -39.582031 34.96875 -39.28125 C 34.039062 -30.832031 32.28125 -23.972656 29.6875 -18.703125 C 27.101562 -13.429688 23.539062 -9.835938 19 -7.921875 C 16.945312 -7.054688 15.132812 -6.664062 13.5625 -6.75 C 12 -6.832031 10.78125 -7.234375 9.90625 -7.953125 C 8.90625 -8.796875 8.132812 -9.851562 7.59375 -11.125 C 6.59375 -13.488281 6.265625 -16.671875 6.609375 -20.671875 C 6.953125 -24.671875 7.867188 -29.550781 9.359375 -35.3125 C 10.085938 -37.976562 10.757812 -40.6875 11.375 -43.4375 C 11.988281 -46.195312 12.34375 -48.988281 12.4375 -51.8125 L 12.484375 -53 L 11.9375 -52.765625 C 9.207031 -51.609375 6.859375 -51.078125 4.890625 -51.171875 C 2.929688 -51.273438 1.347656 -51.570312 0.140625 -52.0625 L -3.015625 -23.328125 C -3.085938 -22.796875 -3.332031 -22.441406 -3.75 -22.265625 C -3.9375 -22.191406 -4.175781 -22.164062 -4.46875 -22.1875 C -4.90625 -22.207031 -5.210938 -22.429688 -5.390625 -22.859375 C -5.472656 -23.035156 -5.5 -23.273438 -5.46875 -23.578125 L -2.265625 -53.40625 C -2.984375 -53.945312 -3.597656 -54.570312 -4.109375 -55.28125 C -4.628906 -56 -5.039062 -56.71875 -5.34375 -57.4375 C -5.832031 -58.59375 -6.085938 -59.695312 -6.109375 -60.75 C -6.085938 -61.039062 -6.0625 -61.316406 -6.03125 -61.578125 C -6 -61.847656 -5.972656 -62.128906 -5.953125 -62.421875 C -5.617188 -63.628906 -5.175781 -64.601562 -4.625 -65.34375 C -4 -66.382812 -3.253906 -67.191406 -2.390625 -67.765625 C -1.523438 -68.347656 -0.726562 -68.796875 0 -69.109375 C 0.664062 -69.378906 1.191406 -69.5625 1.578125 -69.65625 C 1.960938 -69.757812 2.15625 -69.8125 2.15625 -69.8125 C 1.8125 -66.601562 1.539062 -64.117188 1.34375 -62.359375 C 1.15625 -60.597656 1.003906 -59.335938 0.890625 -58.578125 C 0.785156 -57.828125 0.726562 -57.378906 0.71875 -57.234375 C 0.707031 -57.085938 0.703125 -57.015625 0.703125 -57.015625 C 0.691406 -56.710938 0.660156 -56.285156 0.609375 -55.734375 C 0.554688 -55.179688 0.53125 -54.832031 0.53125 -54.6875 C 2.0625 -53.757812 3.90625 -53.394531 6.0625 -53.59375 C 8.226562 -53.789062 10.550781 -54.414062 13.03125 -55.46875 C 14.1875 -55.945312 15.351562 -56.507812 16.53125 -57.15625 C 17.71875 -57.8125 18.925781 -58.539062 20.15625 -59.34375 C 20.15625 -59.34375 20.035156 -57.5625 19.796875 -54 C 19.566406 -50.445312 18.8125 -45.617188 17.53125 -39.515625 L 17.015625 -36.9375 C 16.429688 -34.257812 15.828125 -31.414062 15.203125 -28.40625 C 14.585938 -25.40625 14.097656 -22.648438 13.734375 -20.140625 C 13.679688 -19.398438 13.703125 -18.375 13.796875 -17.0625 C 13.890625 -15.75 14.164062 -14.550781 14.625 -13.46875 C 14.957031 -12.6875 15.441406 -12.050781 16.078125 -11.5625 C 16.710938 -11.070312 17.445312 -10.9375 18.28125 -11.15625 C 18.488281 -11.175781 18.679688 -11.222656 18.859375 -11.296875 C 19.046875 -11.378906 19.234375 -11.460938 19.421875 -11.546875 C 22.078125 -12.671875 24.46875 -15.03125 26.59375 -18.625 C 28.007812 -21.144531 29.21875 -24.132812 30.21875 -27.59375 C 31.21875 -31.050781 31.96875 -35.0625 32.46875 -39.625 C 32.488281 -40.0625 32.742188 -40.382812 33.234375 -40.59375 C 33.472656 -40.695312 33.664062 -40.738281 33.8125 -40.71875 Z M 33.8125 -40.71875 "/></g></g></g><g fill="#000000" fill-opacity="1"><g transform="translate(161.477983, 71.404124)"><g><path d="M 53.953125 -33.203125 C 54.367188 -33.078125 54.617188 -32.75 54.703125 -32.21875 C 54.742188 -31.96875 54.742188 -31.769531 54.703125 -31.625 C 53.265625 -27.726562 51.671875 -23.878906 49.921875 -20.078125 C 48.171875 -16.273438 46.109375 -13.050781 43.734375 -10.40625 C 41.367188 -7.757812 38.5625 -6.175781 35.3125 -5.65625 C 32.132812 -5.144531 29.476562 -5.535156 27.34375 -6.828125 C 25.21875 -8.117188 23.914062 -10.253906 23.4375 -13.234375 C 23.394531 -13.492188 23.347656 -13.769531 23.296875 -14.0625 C 23.253906 -14.351562 23.242188 -14.632812 23.265625 -14.90625 C 21.335938 -11.132812 19.226562 -8.082031 16.9375 -5.75 C 14.65625 -3.425781 12.285156 -2.035156 9.828125 -1.578125 L 9.4375 -1.515625 C 7.101562 -1.140625 5.15625 -1.375 3.59375 -2.21875 C 2.03125 -3.0625 0.828125 -4.242188 -0.015625 -5.765625 C -0.867188 -7.296875 -1.4375 -8.941406 -1.71875 -10.703125 C -1.78125 -11.097656 -1.835938 -11.472656 -1.890625 -11.828125 C -1.953125 -12.179688 -1.976562 -12.523438 -1.96875 -12.859375 C -2.03125 -15.710938 -1.726562 -18.820312 -1.0625 -22.1875 C -0.40625 -25.550781 0.617188 -28.910156 2.015625 -32.265625 C 4.179688 -37.472656 6.410156 -41.640625 8.703125 -44.765625 C 10.992188 -47.890625 13.265625 -50.195312 15.515625 -51.6875 C 17.773438 -53.1875 19.910156 -54.09375 21.921875 -54.40625 C 22.765625 -54.539062 23.554688 -54.582031 24.296875 -54.53125 C 25.035156 -54.488281 25.75 -54.390625 26.4375 -54.234375 C 27.882812 -53.929688 29.007812 -53.226562 29.8125 -52.125 C 30.625 -51.03125 31.164062 -49.640625 31.4375 -47.953125 C 31.53125 -47.359375 31.59375 -46.75 31.625 -46.125 C 31.664062 -45.5 31.675781 -44.820312 31.65625 -44.09375 L 35.953125 -55.859375 L 44.046875 -57.15625 L 34.09375 -30.109375 C 32.613281 -26.078125 31.585938 -22.816406 31.015625 -20.328125 C 30.453125 -17.847656 30.140625 -15.738281 30.078125 -14 C 30.097656 -13.875 30.101562 -13.722656 30.09375 -13.546875 C 30.09375 -13.378906 30.109375 -13.195312 30.140625 -13 C 30.285156 -12.101562 30.703125 -11.175781 31.390625 -10.21875 C 32.078125 -9.257812 33.160156 -8.738281 34.640625 -8.65625 C 34.847656 -8.613281 35.050781 -8.609375 35.25 -8.640625 C 35.445312 -8.671875 35.640625 -8.703125 35.828125 -8.734375 C 36.929688 -8.910156 38.128906 -9.429688 39.421875 -10.296875 C 40.710938 -11.171875 42.046875 -12.519531 43.421875 -14.34375 C 45.109375 -16.613281 46.675781 -19.328125 48.125 -22.484375 C 49.582031 -25.648438 50.96875 -28.96875 52.28125 -32.4375 C 52.46875 -32.925781 52.785156 -33.207031 53.234375 -33.28125 C 53.429688 -33.3125 53.671875 -33.285156 53.953125 -33.203125 Z M 15.5625 -8.171875 C 18.875 -11.578125 21.851562 -16.8125 24.5 -23.875 C 24.914062 -25.082031 25.429688 -26.648438 26.046875 -28.578125 C 26.671875 -30.503906 27.238281 -32.585938 27.75 -34.828125 C 28.257812 -37.066406 28.640625 -39.269531 28.890625 -41.4375 C 29.140625 -43.613281 29.132812 -45.515625 28.875 -47.140625 C 28.695312 -48.242188 28.378906 -49.175781 27.921875 -49.9375 C 27.472656 -50.695312 26.859375 -51.242188 26.078125 -51.578125 C 25.492188 -51.816406 24.878906 -51.882812 24.234375 -51.78125 C 22.679688 -51.53125 21.054688 -50.457031 19.359375 -48.5625 C 17.671875 -46.664062 16.007812 -44.269531 14.375 -41.375 C 12.75 -38.488281 11.296875 -35.445312 10.015625 -32.25 C 8.722656 -28.976562 7.679688 -25.765625 6.890625 -22.609375 C 6.097656 -19.453125 5.726562 -16.519531 5.78125 -13.8125 C 5.75 -12.738281 5.8125 -11.710938 5.96875 -10.734375 C 6.289062 -8.734375 6.914062 -7.304688 7.84375 -6.453125 C 8.78125 -5.597656 9.863281 -5.269531 11.09375 -5.46875 C 12.457031 -5.6875 13.945312 -6.585938 15.5625 -8.171875 Z M 15.5625 -8.171875 "/></g></g></g><g fill="#000000" fill-opacity="1"><g transform="translate(210.347486, 64.612346)"><g/></g></g><g fill="#000000" fill-opacity="1"><g transform="translate(232.239038, 65.245787)"><g/></g></g><g fill="#000000" fill-opacity="1"><g transform="translate(254.690775, 63.909027)"><g><path d="M 93.546875 17.671875 C 93.828125 18.023438 93.851562 18.441406 93.625 18.921875 C 93.507812 19.160156 93.390625 19.320312 93.265625 19.40625 C 86.335938 24.320312 80.03125 27.550781 74.34375 29.09375 C 68.65625 30.632812 63.585938 30.34375 59.140625 28.21875 C 57.128906 27.257812 55.625 26.179688 54.625 24.984375 C 53.632812 23.785156 53.128906 22.597656 53.109375 21.421875 C 53.054688 20.160156 53.328125 18.90625 53.921875 17.65625 C 54.992188 15.40625 57.140625 13.078125 60.359375 10.671875 C 63.585938 8.273438 67.863281 5.695312 73.1875 2.9375 C 75.664062 1.71875 78.128906 0.441406 80.578125 -0.890625 C 83.035156 -2.234375 85.394531 -3.820312 87.65625 -5.65625 C 87.769531 -5.75 88.050781 -6 88.5 -6.40625 C 88.945312 -6.8125 89.285156 -7.253906 89.515625 -7.734375 C 89.710938 -8.140625 89.75 -8.519531 89.625 -8.875 C 89.5 -9.21875 89.316406 -9.484375 89.078125 -9.671875 C 88.835938 -9.859375 88.570312 -10.019531 88.28125 -10.15625 C 88.15625 -10.21875 88.007812 -10.269531 87.84375 -10.3125 C 87.6875 -10.363281 87.554688 -10.414062 87.453125 -10.46875 C 86.222656 -10.832031 84.875 -11 83.40625 -10.96875 C 81.945312 -10.9375 80.410156 -10.753906 78.796875 -10.421875 C 74.410156 -9.617188 70.203125 -8.351562 66.171875 -6.625 C 62.148438 -4.90625 58.5625 -3.109375 55.40625 -1.234375 C 52.257812 0.640625 49.753906 2.226562 47.890625 3.53125 L 32.265625 14.53125 L 24.984375 11.046875 C 31.242188 6.617188 36.332031 3.003906 40.25 0.203125 C 44.164062 -2.585938 47.222656 -4.765625 49.421875 -6.328125 C 51.628906 -7.890625 53.203125 -9.007812 54.140625 -9.6875 C 55.085938 -10.375 55.660156 -10.773438 55.859375 -10.890625 C 56.066406 -11.015625 56.171875 -11.078125 56.171875 -11.078125 C 57.992188 -12.316406 59.738281 -13.722656 61.40625 -15.296875 C 63.070312 -16.867188 64.175781 -18.21875 64.71875 -19.34375 C 64.945312 -19.820312 65.019531 -20.222656 64.9375 -20.546875 C 64.726562 -21.148438 64.296875 -21.609375 63.640625 -21.921875 C 63.523438 -21.972656 63.398438 -22.015625 63.265625 -22.046875 C 63.140625 -22.078125 63.015625 -22.125 62.890625 -22.1875 C 61.671875 -22.539062 60.3125 -22.710938 58.8125 -22.703125 C 57.320312 -22.691406 55.769531 -22.519531 54.15625 -22.1875 C 50.09375 -21.445312 46.1875 -20.3125 42.4375 -18.78125 C 38.6875 -17.257812 35.269531 -15.632812 32.1875 -13.90625 C 29.101562 -12.175781 26.578125 -10.613281 24.609375 -9.21875 L 7.640625 2.78125 L 0.34375 -0.703125 L 45.859375 -32.921875 L 53.234375 -29.40625 L 41.046875 -20.8125 C 44.054688 -22.070312 47.070312 -23.125 50.09375 -23.96875 C 53.125 -24.8125 56.019531 -25.304688 58.78125 -25.453125 C 61.539062 -25.597656 63.957031 -25.175781 66.03125 -24.1875 C 67.039062 -23.695312 67.929688 -23.117188 68.703125 -22.453125 C 69.484375 -21.796875 69.910156 -20.941406 69.984375 -19.890625 C 70.148438 -18.566406 69.90625 -17.222656 69.25 -15.859375 C 68.09375 -13.429688 65.40625 -10.457031 61.1875 -6.9375 C 64.5 -8.550781 67.953125 -9.992188 71.546875 -11.265625 C 75.140625 -12.535156 78.601562 -13.34375 81.9375 -13.6875 C 85.269531 -14.03125 88.179688 -13.609375 90.671875 -12.421875 C 91.671875 -11.941406 92.5625 -11.367188 93.34375 -10.703125 C 94.125 -10.035156 94.550781 -9.179688 94.625 -8.140625 C 94.78125 -7.109375 94.550781 -5.9375 93.9375 -4.625 C 93.195312 -3.082031 91.71875 -1.296875 89.5 0.734375 C 87.289062 2.765625 83.992188 5.03125 79.609375 7.53125 C 76.703125 9.195312 73.65625 10.925781 70.46875 12.71875 C 67.289062 14.507812 64.6875 16.234375 62.65625 17.890625 C 61.226562 19.023438 60.273438 20.097656 59.796875 21.109375 C 59.253906 22.234375 59.234375 23.222656 59.734375 24.078125 C 60.242188 24.941406 61.0625 25.644531 62.1875 26.1875 C 63.375 26.75 64.859375 27.109375 66.640625 27.265625 C 68.429688 27.421875 70.300781 27.28125 72.25 26.84375 C 75.09375 26.226562 78.132812 25.148438 81.375 23.609375 C 84.625 22.066406 88.109375 20 91.828125 17.40625 C 92.191406 17.070312 92.585938 17.003906 93.015625 17.203125 C 93.191406 17.296875 93.367188 17.453125 93.546875 17.671875 Z M 93.546875 17.671875 "/></g></g></g><g fill="#000000" fill-opacity="1"><g transform="translate(327.262194, 102.661358)"><g><path d="M 40.921875 4.40625 C 41.046875 4.863281 40.925781 5.285156 40.5625 5.671875 C 40.382812 5.867188 40.234375 6 40.109375 6.0625 C 37.179688 7.019531 34.1875 7.90625 31.125 8.71875 C 28.070312 9.53125 25.097656 10.109375 22.203125 10.453125 C 19.304688 10.804688 16.640625 10.757812 14.203125 10.3125 C 11.773438 9.863281 9.679688 8.835938 7.921875 7.234375 C 5.546875 5.066406 4.191406 2.722656 3.859375 0.203125 C 3.535156 -2.316406 4.441406 -4.738281 6.578125 -7.0625 C 7.816406 -8.425781 9.488281 -9.722656 11.59375 -10.953125 C 13.695312 -12.179688 16.289062 -13.3125 19.375 -14.34375 L 47.390625 -23.71875 L 53.359375 -18.265625 L 26.09375 -9.140625 C 22.425781 -7.859375 19.347656 -6.660156 16.859375 -5.546875 C 14.378906 -4.441406 12.445312 -3.367188 11.0625 -2.328125 C 10.96875 -2.222656 10.847656 -2.117188 10.703125 -2.015625 C 10.566406 -1.921875 10.4375 -1.800781 10.3125 -1.65625 C 9.6875 -0.976562 9.203125 -0.0625 8.859375 1.09375 C 8.523438 2.25 8.800781 3.410156 9.6875 4.578125 C 9.800781 4.753906 10.023438 5 10.359375 5.3125 C 11.179688 6.0625 12.332031 6.691406 13.8125 7.203125 C 15.300781 7.722656 17.234375 7.957031 19.609375 7.90625 C 22.429688 7.8125 25.53125 7.347656 28.90625 6.515625 C 32.289062 5.691406 35.753906 4.710938 39.296875 3.578125 C 39.796875 3.503906 40.21875 3.628906 40.5625 3.953125 C 40.757812 4.128906 40.878906 4.28125 40.921875 4.40625 Z M 64.859375 -21.375 C 63.492188 -20.84375 62.144531 -20.601562 60.8125 -20.65625 C 59.488281 -20.707031 58.363281 -21.15625 57.4375 -22 C 57.050781 -22.351562 56.734375 -22.78125 56.484375 -23.28125 C 55.765625 -24.820312 56.003906 -26.253906 57.203125 -27.578125 C 57.859375 -28.296875 58.875 -28.921875 60.25 -29.453125 C 61.800781 -29.992188 63.265625 -30.164062 64.640625 -29.96875 C 66.023438 -29.769531 67.109375 -29.316406 67.890625 -28.609375 C 68.285156 -28.253906 68.5625 -27.878906 68.71875 -27.484375 C 69.425781 -26.023438 69.160156 -24.613281 67.921875 -23.25 C 67.128906 -22.382812 66.109375 -21.757812 64.859375 -21.375 Z M 64.859375 -21.375 "/></g></g></g><g fill="#000000" fill-opacity="1"><g transform="translate(345.656942, 119.311475)"><g/></g></g><g fill="#000000" fill-opacity="1"><g transform="translate(359.933929, 135.919294)"><g/></g></g></g></g></svg>