<svg xmlns="http://www.w3.org/2000/svg" xmlns:xlink="http://www.w3.org/1999/xlink" width="1000" zoomAndPan="magnify" viewBox="0 0 750 374.999991" height="500" preserveAspectRatio="xMidYMid meet" version="1.0"><defs><g/></defs><g fill="#9f9e05" fill-opacity="1"><g transform="translate(5.731891, 189.885679)"><g/></g></g><g fill="#9f9e05" fill-opacity="1"><g transform="translate(35.62779, 208.558403)"><g><path d="M 87.796875 -39.25 C 88.953125 -38.632812 89.226562 -37.75 88.625 -36.59375 C 88.007812 -35.4375 87.125 -35.164062 85.96875 -35.78125 L 68.484375 -45.046875 L 35.484375 -23.40625 C 30.535156 -20.101562 26.375 -17.148438 23 -14.546875 C 19.632812 -11.941406 17.113281 -9.601562 15.4375 -7.53125 C 15.351562 -7.363281 15.226562 -7.175781 15.0625 -6.96875 C 14.90625 -6.757812 14.753906 -6.523438 14.609375 -6.265625 C 13.953125 -5.015625 13.585938 -3.46875 13.515625 -1.625 C 13.441406 0.207031 14.296875 1.820312 16.078125 3.21875 C 16.296875 3.445312 16.71875 3.726562 17.34375 4.0625 C 18.851562 4.863281 20.832031 5.367188 23.28125 5.578125 C 25.726562 5.796875 28.648438 5.382812 32.046875 4.34375 C 36.316406 3.1875 40.796875 1.347656 45.484375 -1.171875 C 50.179688 -3.691406 54.957031 -6.523438 59.8125 -9.671875 C 60.351562 -10.054688 60.984375 -10.0625 61.703125 -9.6875 C 62.054688 -9.5 62.300781 -9.304688 62.4375 -9.109375 C 62.78125 -8.460938 62.765625 -7.785156 62.390625 -7.078125 C 62.191406 -6.722656 62.003906 -6.484375 61.828125 -6.359375 C 56.484375 -2.929688 50.976562 0.300781 45.3125 3.34375 C 39.65625 6.382812 34.1875 8.472656 28.90625 9.609375 C 23.632812 10.742188 18.816406 10.15625 14.453125 7.84375 C 10.097656 5.539062 7.203125 2.582031 5.765625 -1.03125 C 4.328125 -4.65625 4.738281 -8.597656 7 -12.859375 C 8.320312 -15.347656 10.316406 -17.9375 12.984375 -20.625 C 15.660156 -23.3125 19.078125 -26 23.234375 -28.6875 L 57.546875 -50.84375 L 46.609375 -56.640625 C 45.453125 -57.253906 45.179688 -58.140625 45.796875 -59.296875 C 46.398438 -60.453125 47.28125 -60.722656 48.4375 -60.109375 L 61.25 -53.3125 L 98.234375 -77.3125 L 109.3125 -71.4375 L 72.3125 -47.453125 Z M 87.796875 -39.25 "/></g></g></g><g fill="#9f9e05" fill-opacity="1"><g transform="translate(71.260854, 228.191212)"><g><path d="M 106.65625 -19.359375 C 107.1875 -18.816406 107.296875 -18.171875 106.984375 -17.421875 C 106.828125 -17.054688 106.664062 -16.796875 106.5 -16.640625 C 102.6875 -13.546875 98.6875 -11.429688 94.5 -10.296875 C 90.320312 -9.160156 86.1875 -8.789062 82.09375 -9.1875 C 78 -9.59375 74.1875 -10.535156 70.65625 -12.015625 L 68.984375 -12.71875 C 67.503906 -11.25 65.929688 -9.828125 64.265625 -8.453125 C 62.597656 -7.078125 60.820312 -5.695312 58.9375 -4.3125 C 51.269531 1.21875 43.65625 4.992188 36.09375 7.015625 C 28.539062 9.035156 22.082031 9.03125 16.71875 7 L 15.46875 6.46875 C 11.5625 4.84375 8.835938 2.671875 7.296875 -0.046875 C 5.765625 -2.765625 5.097656 -5.664062 5.296875 -8.75 C 5.492188 -11.832031 6.140625 -14.671875 7.234375 -17.265625 C 7.429688 -17.734375 7.613281 -18.175781 7.78125 -18.59375 C 7.957031 -19.019531 8.171875 -19.394531 8.421875 -19.71875 C 10.597656 -23.625 13.4375 -27.539062 16.9375 -31.46875 C 20.4375 -35.394531 24.492188 -38.957031 29.109375 -42.15625 C 38.765625 -48.820312 47.304688 -52.75 54.734375 -53.9375 C 62.171875 -55.132812 68.441406 -54.664062 73.546875 -52.53125 L 75.078125 -51.890625 C 75.628906 -51.648438 76.566406 -51.085938 77.890625 -50.203125 C 79.222656 -49.328125 80.5 -48.0625 81.71875 -46.40625 C 82.9375 -44.757812 83.679688 -42.703125 83.953125 -40.234375 C 84.234375 -37.765625 83.632812 -34.765625 82.15625 -31.234375 C 81.925781 -30.679688 81.660156 -30.113281 81.359375 -29.53125 C 81.066406 -28.957031 80.695312 -28.269531 80.25 -27.46875 C 79.21875 -25.5 78.007812 -23.519531 76.625 -21.53125 C 75.238281 -19.539062 73.734375 -17.523438 72.109375 -15.484375 C 76.753906 -13.535156 81.976562 -12.707031 87.78125 -13 C 93.59375 -13.300781 98.992188 -15.519531 103.984375 -19.65625 C 104.492188 -20.09375 105.125 -20.15625 105.875 -19.84375 C 106.238281 -19.6875 106.5 -19.523438 106.65625 -19.359375 Z M 76.140625 -28.203125 C 76.515625 -28.816406 76.863281 -29.457031 77.1875 -30.125 C 77.519531 -30.800781 77.828125 -31.46875 78.109375 -32.125 C 78.492188 -33.0625 78.84375 -34.035156 79.15625 -35.046875 C 79.476562 -36.054688 79.644531 -37.101562 79.65625 -38.1875 C 79.800781 -40.625 79.210938 -42.472656 77.890625 -43.734375 C 76.566406 -45.003906 75.304688 -45.894531 74.109375 -46.40625 C 73.828125 -46.519531 73.554688 -46.601562 73.296875 -46.65625 C 73.046875 -46.707031 72.828125 -46.769531 72.640625 -46.84375 C 69.578125 -47.582031 67.019531 -47.207031 64.96875 -45.71875 C 62.925781 -44.238281 61.363281 -42.460938 60.28125 -40.390625 L 59.828125 -39.28125 C 58.503906 -36.125 58.304688 -32.523438 59.234375 -28.484375 C 60.160156 -24.441406 62.722656 -21.050781 66.921875 -18.3125 L 68.203125 -17.453125 C 71.429688 -21.003906 74.078125 -24.585938 76.140625 -28.203125 Z M 56.765625 -7.34375 C 58.347656 -8.53125 59.863281 -9.742188 61.3125 -10.984375 C 62.769531 -12.234375 64.132812 -13.46875 65.40625 -14.6875 C 65.3125 -14.726562 65.226562 -14.789062 65.15625 -14.875 C 65.082031 -14.957031 64.953125 -15.039062 64.765625 -15.125 C 59.816406 -18.394531 56.753906 -22.484375 55.578125 -27.390625 C 54.410156 -32.304688 54.664062 -36.757812 56.34375 -40.75 L 56.921875 -42.15625 C 57.328125 -42.851562 57.703125 -43.484375 58.046875 -44.046875 C 58.390625 -44.609375 58.773438 -45.132812 59.203125 -45.625 C 52.597656 -43.6875 45.992188 -40.273438 39.390625 -35.390625 C 35.128906 -32.273438 31.148438 -28.976562 27.453125 -25.5 C 23.765625 -22.03125 20.941406 -18.46875 18.984375 -14.8125 C 18.640625 -14.289062 18.359375 -13.773438 18.140625 -13.265625 C 17.929688 -12.765625 17.734375 -12.28125 17.546875 -11.8125 C 16.335938 -8.9375 15.828125 -6.285156 16.015625 -3.859375 C 16.210938 -1.429688 17.367188 0.5 19.484375 1.9375 C 19.816406 2.1875 20.3125 2.445312 20.96875 2.71875 C 23.375 3.726562 26.53125 3.988281 30.4375 3.5 C 34.351562 3.019531 38.628906 1.863281 43.265625 0.03125 C 47.910156 -1.789062 52.410156 -4.25 56.765625 -7.34375 Z M 56.765625 -7.34375 "/></g></g></g><g fill="#9f9e05" fill-opacity="1"><g transform="translate(130.645371, 253.83974)"><g><path d="M 114.828125 -26.84375 C 115.359375 -26.164062 115.53125 -25.488281 115.34375 -24.8125 C 115.289062 -24.613281 115.117188 -24.347656 114.828125 -24.015625 C 108.535156 -17.484375 101.878906 -13.125 94.859375 -10.9375 C 87.835938 -8.75 81.085938 -7.664062 74.609375 -7.6875 C 66.367188 0.289062 58.707031 5.472656 51.625 7.859375 C 44.539062 10.253906 38.476562 10.757812 33.4375 9.375 C 32.46875 9.101562 31.570312 8.75 30.75 8.3125 C 29.9375 7.875 29.179688 7.398438 28.484375 6.890625 C 27.003906 5.441406 26.070312 3.695312 25.6875 1.65625 C 25.3125 -0.375 25.390625 -2.359375 25.921875 -4.296875 C 25.921875 -4.296875 26.160156 -4.878906 26.640625 -6.046875 C 27.117188 -7.222656 28.0625 -8.5625 29.46875 -10.0625 C 30.875 -11.5625 32.863281 -12.816406 35.4375 -13.828125 C 38.007812 -14.835938 41.359375 -15.25 45.484375 -15.0625 C 46.929688 -14.96875 48.503906 -14.789062 50.203125 -14.53125 C 51.898438 -14.28125 53.742188 -13.984375 55.734375 -13.640625 C 56.835938 -13.453125 58.015625 -13.257812 59.265625 -13.0625 C 60.515625 -12.875 61.785156 -12.65625 63.078125 -12.40625 C 63.367188 -12.75 63.679688 -13.03125 64.015625 -13.25 C 64.347656 -13.476562 64.609375 -13.765625 64.796875 -14.109375 C 68.046875 -17.191406 71.378906 -20.582031 74.796875 -24.28125 C 78.210938 -27.988281 81.226562 -31.648438 83.84375 -35.265625 C 86.46875 -38.890625 88.140625 -42.007812 88.859375 -44.625 C 89.609375 -47.34375 89.085938 -49.257812 87.296875 -50.375 C 86.941406 -50.570312 86.550781 -50.753906 86.125 -50.921875 C 85.695312 -51.097656 85.238281 -51.253906 84.75 -51.390625 C 81.0625 -52.410156 76.109375 -51.863281 69.890625 -49.75 C 63.679688 -47.644531 57.191406 -43.195312 50.421875 -36.40625 L -18.625 33.5625 L -30.71875 30.25 L 60.265625 -62.03125 L 72.359375 -58.703125 L 65.609375 -51.796875 C 74.398438 -56.054688 82.34375 -57.210938 89.4375 -55.265625 C 92.25 -54.492188 94.457031 -52.765625 96.0625 -50.078125 C 97.675781 -47.390625 97.816406 -43.625 96.484375 -38.78125 C 95.546875 -35.382812 93.679688 -31.453125 90.890625 -26.984375 C 88.109375 -22.523438 84.054688 -17.484375 78.734375 -11.859375 C 84.460938 -12.160156 90.207031 -13.398438 95.96875 -15.578125 C 101.738281 -17.753906 107.125 -21.492188 112.125 -26.796875 C 112.570312 -27.296875 113.191406 -27.4375 113.984375 -27.21875 C 114.359375 -27.113281 114.640625 -26.988281 114.828125 -26.84375 Z M 31.203125 3.25 C 32.234375 4.0625 33.234375 4.601562 34.203125 4.875 C 36.722656 5.5625 39.960938 4.882812 43.921875 2.84375 C 47.878906 0.800781 53.066406 -3.148438 59.484375 -9.015625 L 55 -9.78125 C 53.125 -10.1875 51.359375 -10.507812 49.703125 -10.75 C 48.046875 -11 46.550781 -11.15625 45.21875 -11.21875 C 41.726562 -11.445312 38.945312 -11.113281 36.875 -10.21875 C 34.800781 -9.320312 33.253906 -8.257812 32.234375 -7.03125 C 31.210938 -5.800781 30.5 -4.820312 30.09375 -4.09375 C 29.914062 -3.832031 29.742188 -3.410156 29.578125 -2.828125 C 29.078125 -0.984375 29.179688 0.453125 29.890625 1.484375 C 30.609375 2.515625 31.046875 3.101562 31.203125 3.25 Z M 31.203125 3.25 "/></g></g></g><g fill="#9f9e05" fill-opacity="1"><g transform="translate(210.733058, 275.867623)"><g><path d="M 93.6875 -25.390625 C 94.257812 -25.015625 94.492188 -24.425781 94.390625 -23.625 C 94.335938 -23.226562 94.25 -22.9375 94.125 -22.75 C 90.320312 -17.65625 86.304688 -12.691406 82.078125 -7.859375 C 77.859375 -3.023438 73.429688 0.816406 68.796875 3.671875 C 64.160156 6.523438 59.347656 7.632812 54.359375 7 C 49.460938 6.363281 45.722656 4.632812 43.140625 1.8125 C 40.566406 -1 39.578125 -4.695312 40.171875 -9.28125 C 40.222656 -9.6875 40.273438 -10.113281 40.328125 -10.5625 C 40.390625 -11.007812 40.5 -11.425781 40.65625 -11.8125 C 36.1875 -7.113281 31.765625 -3.550781 27.390625 -1.125 C 23.015625 1.300781 18.925781 2.328125 15.125 1.953125 L 14.515625 1.875 C 10.929688 1.40625 8.171875 0.210938 6.234375 -1.703125 C 4.304688 -3.628906 3.050781 -5.894531 2.46875 -8.5 C 1.882812 -11.113281 1.769531 -13.769531 2.125 -16.46875 C 2.195312 -17.070312 2.269531 -17.644531 2.34375 -18.1875 C 2.414062 -18.738281 2.535156 -19.265625 2.703125 -19.765625 C 3.847656 -23.960938 5.632812 -28.390625 8.0625 -33.046875 C 10.5 -37.710938 13.460938 -42.207031 16.953125 -46.53125 C 22.390625 -53.25 27.46875 -58.40625 32.1875 -62 C 36.90625 -65.601562 41.242188 -68.015625 45.203125 -69.234375 C 49.171875 -70.460938 52.707031 -70.875 55.8125 -70.46875 C 57.101562 -70.300781 58.28125 -70.019531 59.34375 -69.625 C 60.414062 -69.226562 61.425781 -68.769531 62.375 -68.25 C 64.375 -67.175781 65.722656 -65.65625 66.421875 -63.6875 C 67.128906 -61.726562 67.316406 -59.453125 66.984375 -56.859375 C 66.867188 -55.960938 66.703125 -55.039062 66.484375 -54.09375 C 66.265625 -53.15625 65.984375 -52.148438 65.640625 -51.078125 L 77.0625 -66.5 L 89.5 -64.90625 L 63.171875 -29.46875 C 59.242188 -24.1875 56.320312 -19.84375 54.40625 -16.4375 C 52.488281 -13.03125 51.113281 -10.0625 50.28125 -7.53125 C 50.257812 -7.332031 50.207031 -7.109375 50.125 -6.859375 C 50.039062 -6.617188 49.976562 -6.351562 49.9375 -6.0625 C 49.757812 -4.664062 49.96875 -3.113281 50.5625 -1.40625 C 51.15625 0.289062 52.519531 1.523438 54.65625 2.296875 C 54.945312 2.441406 55.242188 2.53125 55.546875 2.5625 C 55.847656 2.601562 56.148438 2.644531 56.453125 2.6875 C 58.140625 2.90625 60.125 2.65625 62.40625 1.9375 C 64.6875 1.21875 67.222656 -0.175781 70.015625 -2.25 C 73.492188 -4.851562 76.988281 -8.160156 80.5 -12.171875 C 84.019531 -16.179688 87.484375 -20.457031 90.890625 -25 C 91.390625 -25.644531 91.992188 -25.921875 92.703125 -25.828125 C 92.992188 -25.785156 93.320312 -25.640625 93.6875 -25.390625 Z M 26.40625 -5.28125 C 32.75 -8.820312 39.414062 -15.222656 46.40625 -24.484375 C 47.519531 -26.066406 48.953125 -28.140625 50.703125 -30.703125 C 52.453125 -33.265625 54.179688 -36.082031 55.890625 -39.15625 C 57.609375 -42.238281 59.117188 -45.316406 60.421875 -48.390625 C 61.734375 -51.472656 62.546875 -54.265625 62.859375 -56.765625 C 63.078125 -58.460938 63.019531 -59.96875 62.6875 -61.28125 C 62.351562 -62.59375 61.679688 -63.664062 60.671875 -64.5 C 59.929688 -65.113281 59.0625 -65.484375 58.0625 -65.609375 C 55.675781 -65.910156 52.828125 -65.03125 49.515625 -62.96875 C 46.210938 -60.90625 42.734375 -58.101562 39.078125 -54.5625 C 35.421875 -51.03125 31.957031 -47.195312 28.6875 -43.0625 C 25.394531 -38.800781 22.484375 -34.523438 19.953125 -30.234375 C 17.421875 -25.953125 15.59375 -21.800781 14.46875 -17.78125 C 13.957031 -16.21875 13.609375 -14.6875 13.421875 -13.1875 C 13.023438 -10.09375 13.328125 -7.71875 14.328125 -6.0625 C 15.335938 -4.414062 16.796875 -3.472656 18.703125 -3.234375 C 20.796875 -2.960938 23.363281 -3.644531 26.40625 -5.28125 Z M 26.40625 -5.28125 "/></g></g></g><g fill="#9f9e05" fill-opacity="1"><g transform="translate(288.501208, 284.941401)"><g/></g></g><g fill="#9f9e05" fill-opacity="1"><g transform="translate(324.792094, 289.535417)"><g><path d="M 135.796875 -53.28125 C 136.441406 -53.050781 136.804688 -52.539062 136.890625 -51.75 C 136.941406 -51.34375 136.925781 -51.035156 136.84375 -50.828125 C 131.863281 -38.796875 126.304688 -29.457031 120.171875 -22.8125 C 114.046875 -16.175781 107.238281 -12.425781 99.75 -11.5625 C 96.34375 -11.164062 93.503906 -11.34375 91.234375 -12.09375 C 88.972656 -12.84375 87.351562 -13.972656 86.375 -15.484375 C 85.269531 -17.078125 84.597656 -18.921875 84.359375 -21.015625 C 83.910156 -24.816406 84.800781 -29.582031 87.03125 -35.3125 C 89.257812 -41.050781 92.703125 -47.890625 97.359375 -55.828125 C 99.566406 -59.421875 101.722656 -63.085938 103.828125 -66.828125 C 105.929688 -70.566406 107.703125 -74.550781 109.140625 -78.78125 C 109.210938 -78.988281 109.375 -79.535156 109.625 -80.421875 C 109.875 -81.316406 109.953125 -82.164062 109.859375 -82.96875 C 109.773438 -83.664062 109.515625 -84.191406 109.078125 -84.546875 C 108.628906 -84.898438 108.175781 -85.097656 107.71875 -85.140625 C 107.257812 -85.191406 106.773438 -85.1875 106.265625 -85.125 C 106.066406 -85.101562 105.84375 -85.050781 105.59375 -84.96875 C 105.351562 -84.882812 105.128906 -84.832031 104.921875 -84.8125 C 103.078125 -84.289062 101.207031 -83.414062 99.3125 -82.1875 C 97.425781 -80.957031 95.570312 -79.476562 93.75 -77.75 C 88.707031 -73.113281 84.273438 -68.039062 80.453125 -62.53125 C 76.640625 -57.019531 73.453125 -51.757812 70.890625 -46.75 C 68.335938 -41.738281 66.378906 -37.640625 65.015625 -34.453125 L 53.703125 -7.421875 L 41.40625 -6 C 45.9375 -16.875 49.601562 -25.71875 52.40625 -32.53125 C 55.207031 -39.34375 57.394531 -44.660156 58.96875 -48.484375 C 60.550781 -52.316406 61.679688 -55.054688 62.359375 -56.703125 C 63.035156 -58.347656 63.453125 -59.332031 63.609375 -59.65625 C 63.773438 -59.976562 63.859375 -60.140625 63.859375 -60.140625 C 65.234375 -63.242188 66.351562 -66.492188 67.21875 -69.890625 C 68.082031 -73.285156 68.40625 -75.925781 68.1875 -77.8125 C 68.09375 -78.625 67.878906 -79.210938 67.546875 -79.578125 C 66.765625 -80.191406 65.820312 -80.4375 64.71875 -80.3125 C 64.519531 -80.289062 64.320312 -80.238281 64.125 -80.15625 C 63.925781 -80.082031 63.726562 -80.035156 63.53125 -80.015625 C 61.664062 -79.492188 59.765625 -78.613281 57.828125 -77.375 C 55.898438 -76.144531 54.019531 -74.664062 52.1875 -72.9375 C 47.53125 -68.644531 43.390625 -63.984375 39.765625 -58.953125 C 36.140625 -53.921875 33.03125 -49.023438 30.4375 -44.265625 C 27.851562 -39.515625 25.84375 -35.429688 24.40625 -32.015625 L 12.15625 -2.609375 L -0.140625 -1.1875 L 32.671875 -80.09375 L 45.125 -81.53125 L 36.3125 -60.453125 C 39.1875 -64.535156 42.238281 -68.359375 45.46875 -71.921875 C 48.707031 -75.492188 52.0625 -78.492188 55.53125 -80.921875 C 59 -83.347656 62.484375 -84.765625 65.984375 -85.171875 C 67.691406 -85.367188 69.316406 -85.351562 70.859375 -85.125 C 72.410156 -84.90625 73.660156 -84.140625 74.609375 -82.828125 C 75.910156 -81.265625 76.695312 -79.328125 76.96875 -77.015625 C 77.4375 -72.921875 76.363281 -66.875 73.75 -58.875 C 76.738281 -63.675781 80.046875 -68.363281 83.671875 -72.9375 C 87.296875 -77.507812 91.128906 -81.375 95.171875 -84.53125 C 99.210938 -87.6875 103.332031 -89.503906 107.53125 -89.984375 C 109.238281 -90.179688 110.863281 -90.164062 112.40625 -89.9375 C 113.945312 -89.71875 115.203125 -88.957031 116.171875 -87.65625 C 117.222656 -86.445312 117.875 -84.75 118.125 -82.5625 C 118.425781 -79.96875 117.972656 -76.441406 116.765625 -71.984375 C 115.554688 -67.535156 113.117188 -61.90625 109.453125 -55.09375 C 107.035156 -50.5625 104.488281 -45.832031 101.8125 -40.90625 C 99.144531 -35.988281 97.171875 -31.628906 95.890625 -27.828125 C 94.972656 -25.191406 94.613281 -23.023438 94.8125 -21.328125 C 95.03125 -19.429688 95.8125 -18.128906 97.15625 -17.421875 C 98.507812 -16.710938 100.132812 -16.46875 102.03125 -16.6875 C 104.03125 -16.914062 106.25 -17.65625 108.6875 -18.90625 C 111.125 -20.15625 113.4375 -21.867188 115.625 -24.046875 C 118.8125 -27.148438 121.878906 -31.023438 124.828125 -35.671875 C 127.785156 -40.316406 130.625 -45.835938 133.34375 -52.234375 C 133.5625 -52.972656 134.019531 -53.378906 134.71875 -53.453125 C 135.019531 -53.492188 135.378906 -53.4375 135.796875 -53.28125 Z M 135.796875 -53.28125 "/></g></g></g><g fill="#9f9e05" fill-opacity="1"><g transform="translate(453.752863, 271.398722)"><g><path d="M 39.390625 -49.265625 C 40.085938 -49.046875 40.539062 -48.546875 40.75 -47.765625 C 40.851562 -47.378906 40.882812 -47.070312 40.84375 -46.84375 C 39.675781 -42.257812 38.359375 -37.65625 36.890625 -33.03125 C 35.429688 -28.414062 33.734375 -24.101562 31.796875 -20.09375 C 29.859375 -16.082031 27.597656 -12.679688 25.015625 -9.890625 C 22.429688 -7.097656 19.390625 -5.234375 15.890625 -4.296875 C 11.128906 -3.003906 6.988281 -3.1875 3.46875 -4.84375 C -0.0507812 -6.5 -2.441406 -9.660156 -3.703125 -14.328125 C -4.441406 -17.054688 -4.742188 -20.285156 -4.609375 -24.015625 C -4.484375 -27.753906 -3.816406 -32.023438 -2.609375 -36.828125 L 8.359375 -80.765625 L 20.328125 -84 L 9.65625 -41.234375 C 8.3125 -35.453125 7.332031 -30.5 6.71875 -26.375 C 6.113281 -22.25 5.910156 -18.859375 6.109375 -16.203125 C 6.160156 -16.003906 6.191406 -15.773438 6.203125 -15.515625 C 6.222656 -15.253906 6.273438 -14.976562 6.359375 -14.6875 C 6.722656 -13.332031 7.507812 -11.957031 8.71875 -10.5625 C 9.925781 -9.175781 11.648438 -8.570312 13.890625 -8.75 C 14.210938 -8.75 14.71875 -8.835938 15.40625 -9.015625 C 17.050781 -9.460938 18.816406 -10.429688 20.703125 -11.921875 C 22.585938 -13.421875 24.46875 -15.726562 26.34375 -18.84375 C 28.5625 -22.582031 30.53125 -26.972656 32.25 -32.015625 C 33.96875 -37.054688 35.539062 -42.332031 36.96875 -47.84375 C 37.300781 -48.5625 37.804688 -49.007812 38.484375 -49.1875 C 38.867188 -49.289062 39.171875 -49.316406 39.390625 -49.265625 Z M 25.78125 -101.4375 C 25.332031 -99.238281 24.523438 -97.300781 23.359375 -95.625 C 22.203125 -93.957031 20.695312 -92.875 18.84375 -92.375 C 18.070312 -92.164062 17.253906 -92.097656 16.390625 -92.171875 C 13.796875 -92.515625 12.144531 -94 11.4375 -96.625 C 11.039062 -98.082031 11.066406 -99.910156 11.515625 -102.109375 C 12.097656 -104.566406 13.082031 -106.609375 14.46875 -108.234375 C 15.863281 -109.859375 17.335938 -110.882812 18.890625 -111.3125 C 19.671875 -111.519531 20.390625 -111.554688 21.046875 -111.421875 C 23.515625 -111.148438 25.117188 -109.648438 25.859375 -106.921875 C 26.328125 -105.171875 26.300781 -103.34375 25.78125 -101.4375 Z M 25.78125 -101.4375 "/></g></g></g><g fill="#9f9e05" fill-opacity="1"><g transform="translate(492.149228, 261.04965)"><g/></g></g><g fill="#9f9e05" fill-opacity="1"><g transform="translate(527.748949, 252.636104)"><g><path d="M 108.515625 -97.484375 C 109.191406 -97.503906 109.710938 -97.15625 110.078125 -96.4375 C 110.265625 -96.070312 110.351562 -95.773438 110.34375 -95.546875 C 109.894531 -82.546875 107.960938 -71.859375 104.546875 -63.484375 C 101.140625 -55.117188 96.082031 -49.21875 89.375 -45.78125 C 86.320312 -44.21875 83.601562 -43.390625 81.21875 -43.296875 C 78.832031 -43.210938 76.910156 -43.707031 75.453125 -44.78125 C 73.878906 -45.882812 72.609375 -47.375 71.640625 -49.25 C 69.898438 -52.65625 69.066406 -57.429688 69.140625 -63.578125 C 69.210938 -69.722656 70.039062 -77.332031 71.625 -86.40625 C 72.4375 -90.539062 73.171875 -94.726562 73.828125 -98.96875 C 74.484375 -103.207031 74.742188 -107.5625 74.609375 -112.03125 C 74.609375 -112.238281 74.566406 -112.800781 74.484375 -113.71875 C 74.410156 -114.644531 74.1875 -115.472656 73.8125 -116.203125 C 73.5 -116.816406 73.070312 -117.210938 72.53125 -117.390625 C 71.988281 -117.578125 71.488281 -117.609375 71.03125 -117.484375 C 70.582031 -117.367188 70.132812 -117.195312 69.6875 -116.96875 C 69.507812 -116.875 69.320312 -116.75 69.125 -116.59375 C 68.925781 -116.4375 68.734375 -116.304688 68.546875 -116.203125 C 66.992188 -115.066406 65.546875 -113.59375 64.203125 -111.78125 C 62.867188 -109.96875 61.648438 -107.929688 60.546875 -105.671875 C 57.453125 -99.566406 55.082031 -93.265625 53.4375 -86.765625 C 51.789062 -80.265625 50.644531 -74.21875 50 -68.625 C 49.363281 -63.03125 48.96875 -58.503906 48.8125 -55.046875 L 47.6875 -25.796875 L 36.6875 -20.15625 C 37.101562 -31.90625 37.429688 -41.460938 37.671875 -48.828125 C 37.910156 -56.191406 38.097656 -61.941406 38.234375 -66.078125 C 38.378906 -70.222656 38.476562 -73.1875 38.53125 -74.96875 C 38.59375 -76.75 38.640625 -77.816406 38.671875 -78.171875 C 38.710938 -78.523438 38.734375 -78.703125 38.734375 -78.703125 C 38.929688 -82.085938 38.84375 -85.519531 38.46875 -89 C 38.09375 -92.488281 37.46875 -95.082031 36.59375 -96.78125 C 36.226562 -97.5 35.816406 -97.96875 35.359375 -98.1875 C 34.421875 -98.5 33.453125 -98.40625 32.453125 -97.90625 C 32.273438 -97.8125 32.109375 -97.691406 31.953125 -97.546875 C 31.804688 -97.410156 31.644531 -97.300781 31.46875 -97.21875 C 29.894531 -96.070312 28.421875 -94.578125 27.046875 -92.734375 C 25.671875 -90.898438 24.429688 -88.851562 23.328125 -86.59375 C 20.453125 -80.945312 18.195312 -75.128906 16.5625 -69.140625 C 14.9375 -63.160156 13.742188 -57.488281 12.984375 -52.125 C 12.234375 -46.769531 11.785156 -42.238281 11.640625 -38.53125 L 10.46875 -6.71875 L -0.546875 -1.078125 L 2.53125 -86.453125 L 13.671875 -92.171875 L 12.828125 -69.359375 C 14.085938 -74.171875 15.601562 -78.8125 17.375 -83.28125 C 19.15625 -87.757812 21.242188 -91.742188 23.640625 -95.234375 C 26.046875 -98.734375 28.816406 -101.289062 31.953125 -102.90625 C 33.472656 -103.6875 35 -104.238281 36.53125 -104.5625 C 38.0625 -104.882812 39.503906 -104.601562 40.859375 -103.71875 C 42.617188 -102.695312 44.023438 -101.15625 45.078125 -99.09375 C 46.960938 -95.414062 48.082031 -89.375 48.4375 -80.96875 C 49.550781 -86.507812 51.003906 -92.054688 52.796875 -97.609375 C 54.597656 -103.171875 56.835938 -108.140625 59.515625 -112.515625 C 62.191406 -116.890625 65.410156 -120.039062 69.171875 -121.96875 C 70.703125 -122.75 72.226562 -123.300781 73.75 -123.625 C 75.269531 -123.945312 76.71875 -123.671875 78.09375 -122.796875 C 79.488281 -122.035156 80.691406 -120.671875 81.703125 -118.703125 C 82.890625 -116.378906 83.695312 -112.921875 84.125 -108.328125 C 84.550781 -103.734375 84.242188 -97.601562 83.203125 -89.9375 C 82.535156 -84.851562 81.8125 -79.539062 81.03125 -74 C 80.25 -68.457031 79.921875 -63.679688 80.046875 -59.671875 C 80.128906 -56.878906 80.554688 -54.722656 81.328125 -53.203125 C 82.203125 -51.503906 83.394531 -50.554688 84.90625 -50.359375 C 86.414062 -50.171875 88.019531 -50.515625 89.71875 -51.390625 C 91.507812 -52.304688 93.328125 -53.773438 95.171875 -55.796875 C 97.015625 -57.816406 98.582031 -60.226562 99.875 -63.03125 C 101.769531 -67.050781 103.285156 -71.757812 104.421875 -77.15625 C 105.554688 -82.550781 106.273438 -88.71875 106.578125 -95.65625 C 106.523438 -96.414062 106.816406 -96.957031 107.453125 -97.28125 C 107.710938 -97.414062 108.066406 -97.484375 108.515625 -97.484375 Z M 108.515625 -97.484375 "/></g></g></g><g fill="#9f9e05" fill-opacity="1"><g transform="translate(642.497236, 190.661451)"><g><path d="M 30.703125 -69.78125 C 31.359375 -69.882812 31.929688 -69.613281 32.421875 -68.96875 C 32.648438 -68.644531 32.785156 -68.367188 32.828125 -68.140625 C 33.460938 -63.234375 33.820312 -58.21875 33.90625 -53.09375 C 34 -47.96875 33.601562 -42.953125 32.71875 -38.046875 C 31.832031 -33.140625 30.1875 -28.546875 27.78125 -24.265625 C 25.375 -19.984375 21.90625 -16.171875 17.375 -12.828125 C 12.59375 -9.296875 8.332031 -7.429688 4.59375 -7.234375 C 0.863281 -7.046875 -2.34375 -7.835938 -5.03125 -9.609375 C -7.71875 -11.378906 -9.898438 -13.398438 -11.578125 -15.671875 C -12.046875 -16.316406 -12.453125 -16.921875 -12.796875 -17.484375 C -13.148438 -18.046875 -13.472656 -18.59375 -13.765625 -19.125 C -15.773438 -22.882812 -17.3125 -26.84375 -18.375 -31 C -19.445312 -35.164062 -20.222656 -39.941406 -20.703125 -45.328125 C -20.992188 -48.617188 -21.082031 -52.304688 -20.96875 -56.390625 C -20.863281 -60.484375 -20.40625 -64.644531 -19.59375 -68.875 C -18.78125 -73.101562 -17.484375 -77.03125 -15.703125 -80.65625 C -13.929688 -84.28125 -11.550781 -87.195312 -8.5625 -89.40625 C -8.070312 -89.769531 -7.210938 -90.304688 -5.984375 -91.015625 C -4.765625 -91.734375 -3.296875 -92.285156 -1.578125 -92.671875 C 0.128906 -93.054688 1.9375 -92.890625 3.84375 -92.171875 C 6.113281 -91.472656 8.085938 -89.992188 9.765625 -87.734375 C 10.546875 -86.671875 11.226562 -85.484375 11.8125 -84.171875 C 12.40625 -82.859375 12.800781 -81.394531 13 -79.78125 C 13.820312 -74.757812 13.71875 -70.144531 12.6875 -65.9375 C 11.65625 -61.738281 10.03125 -57.878906 7.8125 -54.359375 C 5.59375 -50.847656 3.117188 -47.679688 0.390625 -44.859375 C -2.335938 -42.035156 -4.976562 -39.550781 -7.53125 -37.40625 C -7.4375 -36.601562 -7.269531 -35.785156 -7.03125 -34.953125 C -6.800781 -34.128906 -6.566406 -33.300781 -6.328125 -32.46875 C -4.992188 -27.957031 -3.335938 -24.367188 -1.359375 -21.703125 C 1.378906 -17.972656 4.460938 -16.03125 7.890625 -15.875 C 11.328125 -15.71875 14.582031 -16.773438 17.65625 -19.046875 L 18.640625 -19.765625 C 23.640625 -23.828125 27.007812 -29.722656 28.75 -37.453125 C 30.488281 -45.179688 30.601562 -55.242188 29.09375 -67.640625 C 28.976562 -68.304688 29.242188 -68.875 29.890625 -69.34375 C 30.210938 -69.59375 30.484375 -69.738281 30.703125 -69.78125 Z M -4.59375 -86.3125 C -6.125 -85.175781 -7.25 -82.9375 -7.96875 -79.59375 C -8.695312 -76.25 -9.144531 -72.351562 -9.3125 -67.90625 C -9.476562 -63.46875 -9.441406 -58.929688 -9.203125 -54.296875 C -8.972656 -49.660156 -8.664062 -45.472656 -8.28125 -41.734375 C -5.84375 -44.035156 -3.285156 -46.925781 -0.609375 -50.40625 C 2.066406 -53.882812 4.195312 -57.898438 5.78125 -62.453125 C 7.375 -67.003906 7.65625 -71.84375 6.625 -76.96875 C 5.945312 -80.082031 4.914062 -82.570312 3.53125 -84.4375 C 1.03125 -87.832031 -1.675781 -88.457031 -4.59375 -86.3125 Z M -4.59375 -86.3125 "/></g></g></g><g fill="#9f9e05" fill-opacity="1"><g transform="translate(687.649973, 157.542846)"><g><path d="M 24.75 -72.609375 C 25.46875 -72.710938 26.0625 -72.507812 26.53125 -72 C 26.800781 -71.695312 26.96875 -71.441406 27.03125 -71.234375 C 28.894531 -63.003906 29.769531 -55.34375 29.65625 -48.25 C 29.539062 -41.164062 27.988281 -34.441406 25 -28.078125 C 22.007812 -21.710938 17.1875 -15.523438 10.53125 -9.515625 C 6.726562 -6.078125 2.804688 -4.566406 -1.234375 -4.984375 C -2.367188 -5.179688 -3.425781 -5.445312 -4.40625 -5.78125 C -5.3125 -6.1875 -6.132812 -6.800781 -6.875 -7.625 C -7.820312 -8.664062 -8.460938 -9.78125 -8.796875 -10.96875 C -9.128906 -12.164062 -9.320312 -12.875 -9.375 -13.09375 C -9.582031 -14.820312 -9.4375 -16.382812 -8.9375 -17.78125 C -8.4375 -19.175781 -7.738281 -20.28125 -6.84375 -21.09375 C -6.320312 -21.5625 -5.910156 -21.859375 -5.609375 -21.984375 C -3.722656 -22.753906 -2.003906 -22.273438 -0.453125 -20.546875 C 0.015625 -20.035156 0.425781 -19.425781 0.78125 -18.71875 C 1.132812 -18.019531 1.398438 -17.203125 1.578125 -16.265625 C 1.867188 -15.035156 2 -13.796875 1.96875 -12.546875 C 1.945312 -11.304688 1.695312 -10.203125 1.21875 -9.234375 C 3.007812 -9.503906 4.804688 -10.445312 6.609375 -12.0625 L 7.609375 -12.96875 C 9.410156 -14.875 10.332031 -17.609375 10.375 -21.171875 C 10.414062 -24.742188 9.566406 -28.796875 7.828125 -33.328125 C 6.097656 -37.867188 3.398438 -42.550781 -0.265625 -47.375 C -5.003906 -53.664062 -8.671875 -59.675781 -11.265625 -65.40625 C -13.859375 -71.144531 -15.003906 -76.390625 -14.703125 -81.140625 C -18.015625 -76.109375 -20.050781 -71.046875 -20.8125 -65.953125 C -21.570312 -60.859375 -21.566406 -55.707031 -20.796875 -50.5 C -20.023438 -45.300781 -19 -39.960938 -17.71875 -34.484375 L -17 -31.234375 C -16.757812 -30.503906 -16.941406 -29.867188 -17.546875 -29.328125 C -17.691406 -29.191406 -17.984375 -29.066406 -18.421875 -28.953125 C -19.078125 -28.765625 -19.671875 -28.96875 -20.203125 -29.5625 C -20.484375 -29.863281 -20.644531 -30.125 -20.6875 -30.34375 L -21.5 -33.6875 C -22.65625 -38.882812 -23.632812 -44.03125 -24.4375 -49.125 C -25.25 -54.226562 -25.398438 -59.351562 -24.890625 -64.5 C -24.390625 -69.644531 -22.757812 -74.816406 -20 -80.015625 C -17.238281 -85.222656 -12.941406 -90.460938 -7.109375 -95.734375 C -6.140625 -96.609375 -5.21875 -96.5625 -4.34375 -95.59375 C -3.46875 -94.613281 -3.515625 -93.6875 -4.484375 -92.8125 C -4.484375 -92.8125 -4.503906 -92.789062 -4.546875 -92.75 C -4.585938 -92.71875 -4.71875 -92.597656 -4.9375 -92.390625 C -7.25 -90.304688 -8.40625 -87.835938 -8.40625 -84.984375 C -8.40625 -82.128906 -7.578125 -79.078125 -5.921875 -75.828125 C -4.273438 -72.578125 -2.175781 -69.15625 0.375 -65.5625 C 2.9375 -61.976562 5.628906 -58.40625 8.453125 -54.84375 C 12.660156 -49.425781 15.632812 -44.210938 17.375 -39.203125 C 19.125 -34.203125 19.707031 -29.546875 19.125 -25.234375 C 22.300781 -30.273438 24.351562 -35.242188 25.28125 -40.140625 C 26.207031 -45.046875 26.390625 -49.988281 25.828125 -54.96875 C 25.265625 -59.957031 24.398438 -65.050781 23.234375 -70.25 C 23.203125 -71.03125 23.445312 -71.660156 23.96875 -72.140625 C 24.257812 -72.398438 24.519531 -72.554688 24.75 -72.609375 Z M 24.75 -72.609375 "/></g></g></g></svg>